{
  "source": "C:\\Users\\Peter\\Desktop\\stuff\\MIUN\\quantitative_research\\video_compression\\videos\\BVI-HD\\BVI-HD_CDVL_videos\\ORIG\\Diver_1920x1080_30fps.mp4",
  "output": "C:\\Users\\Peter\\Desktop\\stuff\\MIUN\\quantitative_research\\video_compression\\compressed_videos\\BVI-HD\\hevc\\3\\Diver_1920x1080_30fps_hevc.mp4",
  "codec": "hevc",
  "ok": "Input #0, mov,mp4,m4a,3gp,3g2,mj2, from 'C:\\Users\\Peter\\Desktop\\stuff\\MIUN\\quantitative_research\\video_compression\\videos\\BVI-HD\\BVI-HD_CDVL_videos\\ORIG\\Diver_1920x1080_30fps.mp4':\n  Metadata:\n    major_brand     : isom\n    minor_version   : 512\n    compatible_brands: isomiso2avc1mp41\n    encoder         : Lavf54.28.101\n  Duration: 00:00:05.00, start: 0.000000, bitrate: 196798 kb/s\n  Stream #0:0[0x1](und): Video: h264 (High 4:4:4 Predictive) (avc1 / 0x31637661), yuv420p(progressive), 1920x1080, 196794 kb/s, 30 fps, 30 tbr, 30 tbn (default)\n    Metadata:\n      handler_name    : VideoHandler\n      vendor_id       : [0][0][0][0]\n[out#0/mp4 @ 00000296f6caad00] Codec AVOption b:a (set bitrate (in bits/s)) has not been used for any stream. The most likely reason is either wrong type (e.g. a video option with no video streams) or that it is a private option of some decoder which was not actually used for any stream.\nStream mapping:\n  Stream #0:0 -> #0:0 (h264 (native) -> hevc (libx265))\nPress [q] to stop, [?] for help\n[libx265 @ 00000296f6cafd80] Unknown option: \"aq-mode.\nx265 [info]: HEVC encoder version 4.1+190-8f11c33ac\nx265 [info]: build info [Windows][GCC 15.1.0][64 bit] 10bit\nx265 [info]: using cpu capabilities: MMX2 SSE2Fast LZCNT SSSE3 SSE4.2 AVX FMA3 BMI2 AVX2\nx265 [info]: Main 10 profile, Level-4 (Main tier)\nx265 [info]: Thread pool created using 12 threads\nx265 [info]: Slices                              : 1\nx265 [info]: frame threads / pool features       : 3 / wpp(17 rows)\nx265 [info]: Coding QT: max CU size, min CU size : 64 / 8\nx265 [info]: Residual QT: max TU size, max depth : 32 / 1 inter / 1 intra\nx265 [info]: ME / range / subpel / merge         : star / 57 / 3 / 3\nx265 [info]: Keyframe min / max / scenecut / bias  : 25 / 250 / 40 / 5.00 \nx265 [info]: Lookahead / bframes / badapt        : 25 / 4 / 2\nx265 [info]: b-pyramid / weightp / weightb       : 1 / 1 / 0\nx265 [info]: References / ref-limit  cu / depth  : 4 / on / on\nx265 [info]: AQ: mode / str / qg-size / cu-tree  : 2 / 1.0 / 32 / 1\nx265 [info]: Rate Control / qCompress            : ABR-3000 kbps / 0.60\nx265 [info]: VBV/HRD buffer / max-rate / init    : 3000 / 3000 / 0.750\nx265 [info]: tools: rect limit-modes rd=4 psy-rd=2.00 rdoq=2 psy-rdoq=1.00\nx265 [info]: tools: rskip mode=1 signhide tmvp strong-intra-smoothing lslices=4\nx265 [info]: tools: deblock sao dhdr10-info\nOutput #0, mp4, to 'C:\\Users\\Peter\\Desktop\\stuff\\MIUN\\quantitative_research\\video_compression\\compressed_videos\\BVI-HD\\hevc\\3\\Diver_1920x1080_30fps_hevc.mp4':\n  Metadata:\n    major_brand     : isom\n    minor_version   : 512\n    compatible_brands: isomiso2avc1mp41\n    encoder         : Lavf62.3.100\n  Stream #0:0(und): Video: hevc (hev1 / 0x31766568), yuv420p10le(tv, progressive), 1920x1080, q=2-31, 3000 kb/s, 30 fps, 15360 tbn (default)\n    Metadata:\n      encoder         : Lavc62.11.100 libx265\n      handler_name    : VideoHandler\n      vendor_id       : [0][0][0][0]\n    Side data:\n      cpb: bitrate max/min/avg: 3000000/0/3000000 buffer size: 3000000 vbv_delay: N/A\nframe=    0 fps=0.0 q=0.0 size=       0KiB time=N/A bitrate=N/A speed=N/A elapsed=0:00:00.50    \nframe=    0 fps=0.0 q=0.0 size=       0KiB time=N/A bitrate=N/A speed=N/A elapsed=0:00:01.05    \nframe=    0 fps=0.0 q=0.0 size=       0KiB time=N/A bitrate=N/A speed=N/A elapsed=0:00:01.57    \nframe=    0 fps=0.0 q=0.0 size=       0KiB time=N/A bitrate=N/A speed=N/A elapsed=0:00:02.09    \nframe=    0 fps=0.0 q=0.0 size=       0KiB time=N/A bitrate=N/A speed=N/A elapsed=0:00:02.60    \nframe=    0 fps=0.0 q=0.0 size=       0KiB time=N/A bitrate=N/A speed=N/A elapsed=0:00:03.11    \nframe=    0 fps=0.0 q=0.0 size=       0KiB time=N/A bitrate=N/A speed=N/A elapsed=0:00:03.64    \nframe=    0 fps=0.0 q=0.0 size=       0KiB time=N/A bitrate=N/A speed=N/A elapsed=0:00:04.15    \nframe=    0 fps=0.0 q=0.0 size=       0KiB time=N/A bitrate=N/A speed=N/A elapsed=0:00:04.68    \nframe=    0 fps=0.0 q=0.0 size=       0KiB time=N/A bitrate=N/A speed=N/A elapsed=0:00:05.22    \nframe=    0 fps=0.0 q=0.0 size=       0KiB time=N/A bitrate=N/A speed=N/A elapsed=0:00:05.76    \nframe=    0 fps=0.0 q=0.0 size=       0KiB time=N/A bitrate=N/A speed=N/A elapsed=0:00:06.29    \nframe=    0 fps=0.0 q=0.0 size=       0KiB time=N/A bitrate=N/A speed=N/A elapsed=0:00:06.81    \nframe=    1 fps=0.1 q=27.7 size=       0KiB time=-00:00:00.03 bitrate=N/A speed=N/A elapsed=0:00:07.33    \nframe=    1 fps=0.1 q=27.7 size=       0KiB time=-00:00:00.03 bitrate=N/A speed=N/A elapsed=0:00:07.87    \nframe=    1 fps=0.1 q=27.7 size=       0KiB time=-00:00:00.03 bitrate=N/A speed=N/A elapsed=0:00:08.38    \nframe=    2 fps=0.2 q=29.2 size=       0KiB time=00:00:00.00 bitrate=N/A speed=   0x elapsed=0:00:08.90    \nframe=    2 fps=0.2 q=29.2 size=       0KiB time=00:00:00.00 bitrate=N/A speed=   0x elapsed=0:00:09.41    \nframe=    3 fps=0.3 q=32.2 size=       0KiB time=00:00:00.03 bitrate=  10.6kbits/s speed=0.00334x elapsed=0:00:09.97    \nframe=    4 fps=0.4 q=33.3 size=       0KiB time=00:00:00.06 bitrate=   5.3kbits/s speed=0.00634x elapsed=0:00:10.51    \nframe=    4 fps=0.4 q=33.3 size=       0KiB time=00:00:00.06 bitrate=   5.3kbits/s speed=0.00602x elapsed=0:00:11.06    \nframe=    4 fps=0.3 q=33.3 size=       0KiB time=00:00:00.06 bitrate=   5.3kbits/s speed=0.00575x elapsed=0:00:11.59    \nframe=    4 fps=0.3 q=33.3 size=       0KiB time=00:00:00.06 bitrate=   5.3kbits/s speed=0.00551x elapsed=0:00:12.10    \nframe=    4 fps=0.3 q=33.3 size=       0KiB time=00:00:00.06 bitrate=   5.3kbits/s speed=0.00528x elapsed=0:00:12.63    \nframe=    4 fps=0.3 q=33.3 size=       0KiB time=00:00:00.06 bitrate=   5.3kbits/s speed=0.00506x elapsed=0:00:13.16    \nframe=    5 fps=0.4 q=30.9 size=       0KiB time=00:00:00.10 bitrate=   3.5kbits/s speed=0.00731x elapsed=0:00:13.68    \nframe=    5 fps=0.4 q=30.9 size=       0KiB time=00:00:00.10 bitrate=   3.5kbits/s speed=0.00704x elapsed=0:00:14.21    \nframe=    5 fps=0.3 q=30.9 size=       0KiB time=00:00:00.10 bitrate=   3.5kbits/s speed=0.00679x elapsed=0:00:14.73    \nframe=    5 fps=0.3 q=30.9 size=       0KiB time=00:00:00.10 bitrate=   3.5kbits/s speed=0.00655x elapsed=0:00:15.25    \nframe=    6 fps=0.4 q=29.4 size=       0KiB time=00:00:00.13 bitrate=   2.6kbits/s speed=0.00845x elapsed=0:00:15.78    \nframe=    6 fps=0.4 q=29.4 size=       0KiB time=00:00:00.13 bitrate=   2.6kbits/s speed=0.00818x elapsed=0:00:16.30    \nframe=    6 fps=0.4 q=29.4 size=       0KiB time=00:00:00.13 bitrate=   2.6kbits/s speed=0.00793x elapsed=0:00:16.81    \nframe=    6 fps=0.3 q=29.4 size=       0KiB time=00:00:00.13 bitrate=   2.6kbits/s speed=0.00769x elapsed=0:00:17.32    \nframe=    7 fps=0.4 q=23.3 size=       0KiB time=00:00:00.16 bitrate=   2.1kbits/s speed=0.00935x elapsed=0:00:17.83    \nframe=    7 fps=0.4 q=23.3 size=       0KiB time=00:00:00.16 bitrate=   2.1kbits/s speed=0.00907x elapsed=0:00:18.36    \nframe=    7 fps=0.4 q=23.3 size=       0KiB time=00:00:00.16 bitrate=   2.1kbits/s speed=0.00882x elapsed=0:00:18.89    \nframe=    8 fps=0.4 q=24.2 size=       0KiB time=00:00:00.20 bitrate=   1.8kbits/s speed=0.0103x elapsed=0:00:19.40    \nframe=    8 fps=0.4 q=24.2 size=       0KiB time=00:00:00.20 bitrate=   1.8kbits/s speed=0.01x elapsed=0:00:19.93    \nframe=    9 fps=0.4 q=25.4 size=       0KiB time=00:00:00.23 bitrate=   1.5kbits/s speed=0.0114x elapsed=0:00:20.44    \nframe=    9 fps=0.4 q=25.4 size=       0KiB time=00:00:00.23 bitrate=   1.5kbits/s speed=0.0111x elapsed=0:00:20.96    \nframe=    9 fps=0.4 q=25.4 size=       0KiB time=00:00:00.23 bitrate=   1.5kbits/s speed=0.0108x elapsed=0:00:21.52    \nframe=    9 fps=0.4 q=25.4 size=       0KiB time=00:00:00.23 bitrate=   1.5kbits/s speed=0.0106x elapsed=0:00:22.04    \nframe=    9 fps=0.4 q=25.4 size=       0KiB time=00:00:00.23 bitrate=   1.5kbits/s speed=0.0103x elapsed=0:00:22.55    \nframe=    9 fps=0.4 q=25.4 size=       0KiB time=00:00:00.23 bitrate=   1.5kbits/s speed=0.0101x elapsed=0:00:23.07    \nframe=    9 fps=0.4 q=25.4 size=       0KiB time=00:00:00.23 bitrate=   1.5kbits/s speed=0.00989x elapsed=0:00:23.59    \nframe=    9 fps=0.4 q=25.4 size=       0KiB time=00:00:00.23 bitrate=   1.5kbits/s speed=0.00968x elapsed=0:00:24.11    \nframe=   10 fps=0.4 q=25.1 size=       0KiB time=00:00:00.26 bitrate=   1.3kbits/s speed=0.0108x elapsed=0:00:24.63    \nframe=   10 fps=0.4 q=25.1 size=       0KiB time=00:00:00.26 bitrate=   1.3kbits/s speed=0.0106x elapsed=0:00:25.15    \nframe=   11 fps=0.4 q=24.7 size=       0KiB time=00:00:00.30 bitrate=   1.2kbits/s speed=0.0117x elapsed=0:00:25.66    \nframe=   11 fps=0.4 q=24.7 size=       0KiB time=00:00:00.30 bitrate=   1.2kbits/s speed=0.0115x elapsed=0:00:26.19    \nframe=   11 fps=0.4 q=24.7 size=       0KiB time=00:00:00.30 bitrate=   1.2kbits/s speed=0.0112x elapsed=0:00:26.74    \nframe=   11 fps=0.4 q=24.7 size=       0KiB time=00:00:00.30 bitrate=   1.2kbits/s speed=0.011x elapsed=0:00:27.30    \nframe=   11 fps=0.4 q=24.7 size=       0KiB time=00:00:00.30 bitrate=   1.2kbits/s speed=0.0108x elapsed=0:00:27.82    \nframe=   12 fps=0.4 q=22.4 size=       0KiB time=00:00:00.33 bitrate=   1.1kbits/s speed=0.0117x elapsed=0:00:28.41    \nframe=   12 fps=0.4 q=22.4 size=       0KiB time=00:00:00.33 bitrate=   1.1kbits/s speed=0.0115x elapsed=0:00:28.96    \nframe=   12 fps=0.4 q=22.4 size=       0KiB time=00:00:00.33 bitrate=   1.1kbits/s speed=0.0113x elapsed=0:00:29.59    \nframe=   12 fps=0.4 q=22.4 size=       0KiB time=00:00:00.33 bitrate=   1.1kbits/s speed=0.011x elapsed=0:00:30.22    \nframe=   12 fps=0.4 q=22.4 size=       0KiB time=00:00:00.33 bitrate=   1.1kbits/s speed=0.0108x elapsed=0:00:30.81    \nframe=   12 fps=0.4 q=22.4 size=       0KiB time=00:00:00.33 bitrate=   1.1kbits/s speed=0.0106x elapsed=0:00:31.41    \nframe=   12 fps=0.4 q=22.4 size=       0KiB time=00:00:00.33 bitrate=   1.1kbits/s speed=0.0104x elapsed=0:00:31.97    \nframe=   12 fps=0.4 q=22.4 size=       0KiB time=00:00:00.33 bitrate=   1.1kbits/s speed=0.0103x elapsed=0:00:32.50    \nframe=   12 fps=0.4 q=22.4 size=       0KiB time=00:00:00.33 bitrate=   1.1kbits/s speed=0.0101x elapsed=0:00:33.03    \nframe=   13 fps=0.4 q=24.0 size=       0KiB time=00:00:00.36 bitrate=   1.0kbits/s speed=0.0109x elapsed=0:00:33.56    \nframe=   13 fps=0.4 q=24.0 size=       0KiB time=00:00:00.36 bitrate=   1.0kbits/s speed=0.0108x elapsed=0:00:34.09    \nframe=   13 fps=0.4 q=24.0 size=       0KiB time=00:00:00.36 bitrate=   1.0kbits/s speed=0.0106x elapsed=0:00:34.62    \nframe=   14 fps=0.4 q=24.9 size=       0KiB time=00:00:00.40 bitrate=   0.9kbits/s speed=0.0114x elapsed=0:00:35.15    \nframe=   14 fps=0.4 q=24.9 size=       0KiB time=00:00:00.40 bitrate=   0.9kbits/s speed=0.0112x elapsed=0:00:35.66    \nframe=   14 fps=0.4 q=24.9 size=       0KiB time=00:00:00.40 bitrate=   0.9kbits/s speed=0.0111x elapsed=0:00:36.18    \nframe=   14 fps=0.4 q=24.9 size=       0KiB time=00:00:00.40 bitrate=   0.9kbits/s speed=0.0109x elapsed=0:00:36.69    \nframe=   14 fps=0.4 q=24.9 size=       0KiB time=00:00:00.40 bitrate=   0.9kbits/s speed=0.0107x elapsed=0:00:37.21    \nframe=   14 fps=0.4 q=24.9 size=       0KiB time=00:00:00.40 bitrate=   0.9kbits/s speed=0.0106x elapsed=0:00:37.74    \nframe=   14 fps=0.4 q=24.9 size=       0KiB time=00:00:00.40 bitrate=   0.9kbits/s speed=0.0105x elapsed=0:00:38.27    \nframe=   15 fps=0.4 q=24.6 size=       0KiB time=00:00:00.43 bitrate=   0.8kbits/s speed=0.0112x elapsed=0:00:38.79    \nframe=   15 fps=0.4 q=24.6 size=       0KiB time=00:00:00.43 bitrate=   0.8kbits/s speed=0.011x elapsed=0:00:39.31    \nframe=   15 fps=0.4 q=24.6 size=       0KiB time=00:00:00.43 bitrate=   0.8kbits/s speed=0.0109x elapsed=0:00:39.82    \nframe=   15 fps=0.4 q=24.6 size=       0KiB time=00:00:00.43 bitrate=   0.8kbits/s speed=0.0107x elapsed=0:00:40.35    \nframe=   16 fps=0.4 q=24.5 size=       0KiB time=00:00:00.46 bitrate=   0.8kbits/s speed=0.0114x elapsed=0:00:40.88    \nframe=   16 fps=0.4 q=24.5 size=       0KiB time=00:00:00.46 bitrate=   0.8kbits/s speed=0.0113x elapsed=0:00:41.40    \nframe=   16 fps=0.4 q=24.5 size=       0KiB time=00:00:00.46 bitrate=   0.8kbits/s speed=0.0111x elapsed=0:00:41.92    \nframe=   17 fps=0.4 q=22.1 size=       0KiB time=00:00:00.50 bitrate=   0.7kbits/s speed=0.0118x elapsed=0:00:42.43    \nframe=   17 fps=0.4 q=22.1 size=       0KiB time=00:00:00.50 bitrate=   0.7kbits/s speed=0.0116x elapsed=0:00:42.95    \nframe=   17 fps=0.4 q=22.1 size=       0KiB time=00:00:00.50 bitrate=   0.7kbits/s speed=0.0115x elapsed=0:00:43.47    \nframe=   17 fps=0.4 q=22.1 size=       0KiB time=00:00:00.50 bitrate=   0.7kbits/s speed=0.0114x elapsed=0:00:44.01    \nframe=   17 fps=0.4 q=22.1 size=       0KiB time=00:00:00.50 bitrate=   0.7kbits/s speed=0.0112x elapsed=0:00:44.53    \nframe=   18 fps=0.4 q=23.3 size=       0KiB time=00:00:00.53 bitrate=   0.7kbits/s speed=0.0118x elapsed=0:00:45.05    \nframe=   18 fps=0.4 q=23.3 size=       0KiB time=00:00:00.53 bitrate=   0.7kbits/s speed=0.0117x elapsed=0:00:45.59    \nframe=   19 fps=0.4 q=24.7 size=       0KiB time=00:00:00.56 bitrate=   0.6kbits/s speed=0.0123x elapsed=0:00:46.10    \nframe=   19 fps=0.4 q=24.7 size=       0KiB time=00:00:00.56 bitrate=   0.6kbits/s speed=0.0122x elapsed=0:00:46.62    \nframe=   19 fps=0.4 q=24.7 size=       0KiB time=00:00:00.56 bitrate=   0.6kbits/s speed=0.012x elapsed=0:00:47.14    \nframe=   19 fps=0.4 q=24.7 size=       0KiB time=00:00:00.56 bitrate=   0.6kbits/s speed=0.0119x elapsed=0:00:47.64    \nframe=   20 fps=0.4 q=24.5 size=       0KiB time=00:00:00.60 bitrate=   0.6kbits/s speed=0.0125x elapsed=0:00:48.17    \nframe=   20 fps=0.4 q=24.5 size=       0KiB time=00:00:00.60 bitrate=   0.6kbits/s speed=0.0123x elapsed=0:00:48.68    \nframe=   20 fps=0.4 q=24.5 size=       0KiB time=00:00:00.60 bitrate=   0.6kbits/s speed=0.0122x elapsed=0:00:49.21    \nframe=   20 fps=0.4 q=24.5 size=       0KiB time=00:00:00.60 bitrate=   0.6kbits/s speed=0.0121x elapsed=0:00:49.75    \nframe=   20 fps=0.4 q=24.5 size=       0KiB time=00:00:00.60 bitrate=   0.6kbits/s speed=0.0119x elapsed=0:00:50.27    \nframe=   21 fps=0.4 q=24.5 size=       0KiB time=00:00:00.63 bitrate=   0.6kbits/s speed=0.0125x elapsed=0:00:50.80    \nframe=   21 fps=0.4 q=24.5 size=       0KiB time=00:00:00.63 bitrate=   0.6kbits/s speed=0.0123x elapsed=0:00:51.32    \nframe=   22 fps=0.4 q=22.4 size=       0KiB time=00:00:00.66 bitrate=   0.5kbits/s speed=0.0129x elapsed=0:00:51.84    \nframe=   22 fps=0.4 q=22.4 size=       0KiB time=00:00:00.66 bitrate=   0.5kbits/s speed=0.0127x elapsed=0:00:52.36    \nframe=   22 fps=0.4 q=22.4 size=       0KiB time=00:00:00.66 bitrate=   0.5kbits/s speed=0.0126x elapsed=0:00:52.91    \nframe=   23 fps=0.4 q=23.4 size=       0KiB time=00:00:00.70 bitrate=   0.5kbits/s speed=0.0131x elapsed=0:00:53.44    \nframe=   23 fps=0.4 q=23.4 size=       0KiB time=00:00:00.70 bitrate=   0.5kbits/s speed=0.013x elapsed=0:00:53.96    \nframe=   23 fps=0.4 q=23.4 size=       0KiB time=00:00:00.70 bitrate=   0.5kbits/s speed=0.0128x elapsed=0:00:54.50    \nframe=   24 fps=0.4 q=24.6 size=       0KiB time=00:00:00.73 bitrate=   0.5kbits/s speed=0.0133x elapsed=0:00:55.03    \nframe=   24 fps=0.4 q=24.6 size=       0KiB time=00:00:00.73 bitrate=   0.5kbits/s speed=0.0132x elapsed=0:00:55.53    \nframe=   24 fps=0.4 q=24.6 size=       0KiB time=00:00:00.73 bitrate=   0.5kbits/s speed=0.0131x elapsed=0:00:56.06    \nframe=   24 fps=0.4 q=24.6 size=       0KiB time=00:00:00.73 bitrate=   0.5kbits/s speed=0.013x elapsed=0:00:56.58    \nframe=   24 fps=0.4 q=24.6 size=       0KiB time=00:00:00.73 bitrate=   0.5kbits/s speed=0.0128x elapsed=0:00:57.10    \nframe=   24 fps=0.4 q=24.6 size=       0KiB time=00:00:00.73 bitrate=   0.5kbits/s speed=0.0127x elapsed=0:00:57.63    \nframe=   24 fps=0.4 q=24.6 size=       0KiB time=00:00:00.73 bitrate=   0.5kbits/s speed=0.0126x elapsed=0:00:58.14    \nframe=   25 fps=0.4 q=24.7 size=       0KiB time=00:00:00.76 bitrate=   0.5kbits/s speed=0.0131x elapsed=0:00:58.67    \nframe=   25 fps=0.4 q=24.7 size=       0KiB time=00:00:00.76 bitrate=   0.5kbits/s speed=0.0129x elapsed=0:00:59.20    \nframe=   25 fps=0.4 q=24.7 size=       0KiB time=00:00:00.76 bitrate=   0.5kbits/s speed=0.0128x elapsed=0:00:59.72    \nframe=   25 fps=0.4 q=24.7 size=       0KiB time=00:00:00.76 bitrate=   0.5kbits/s speed=0.0127x elapsed=0:01:00.27    \nframe=   25 fps=0.4 q=24.7 size=       0KiB time=00:00:00.76 bitrate=   0.5kbits/s speed=0.0126x elapsed=0:01:00.82    \nframe=   25 fps=0.4 q=24.7 size=       0KiB time=00:00:00.76 bitrate=   0.5kbits/s speed=0.0125x elapsed=0:01:01.34    \nframe=   26 fps=0.4 q=24.4 size=     256KiB time=00:00:00.80 bitrate=2621.9kbits/s speed=0.0129x elapsed=0:01:01.87    \nframe=   26 fps=0.4 q=24.4 size=     256KiB time=00:00:00.80 bitrate=2621.9kbits/s speed=0.0128x elapsed=0:01:02.42    \nframe=   26 fps=0.4 q=24.4 size=     256KiB time=00:00:00.80 bitrate=2621.9kbits/s speed=0.0127x elapsed=0:01:02.96    \nframe=   26 fps=0.4 q=24.4 size=     256KiB time=00:00:00.80 bitrate=2621.9kbits/s speed=0.0126x elapsed=0:01:03.48    \nframe=   27 fps=0.4 q=22.4 size=     256KiB time=00:00:00.83 bitrate=2517.0kbits/s speed=0.013x elapsed=0:01:04.00    \nframe=   27 fps=0.4 q=22.4 size=     256KiB time=00:00:00.83 bitrate=2517.0kbits/s speed=0.0129x elapsed=0:01:04.54    \nframe=   27 fps=0.4 q=22.4 size=     256KiB time=00:00:00.83 bitrate=2517.0kbits/s speed=0.0128x elapsed=0:01:05.06    \nframe=   27 fps=0.4 q=22.4 size=     256KiB time=00:00:00.83 bitrate=2517.0kbits/s speed=0.0127x elapsed=0:01:05.61    \nframe=   27 fps=0.4 q=22.4 size=     256KiB time=00:00:00.83 bitrate=2517.0kbits/s speed=0.0126x elapsed=0:01:06.15    \nframe=   27 fps=0.4 q=22.4 size=     256KiB time=00:00:00.83 bitrate=2517.0kbits/s speed=0.0125x elapsed=0:01:06.74    \nframe=   27 fps=0.4 q=22.4 size=     256KiB time=00:00:00.83 bitrate=2517.0kbits/s speed=0.0124x elapsed=0:01:07.35    \nframe=   27 fps=0.4 q=22.4 size=     256KiB time=00:00:00.83 bitrate=2517.0kbits/s speed=0.0123x elapsed=0:01:07.88    \nframe=   28 fps=0.4 q=24.2 size=     256KiB time=00:00:00.86 bitrate=2420.2kbits/s speed=0.0127x elapsed=0:01:08.42    \nframe=   28 fps=0.4 q=24.2 size=     256KiB time=00:00:00.86 bitrate=2420.2kbits/s speed=0.0126x elapsed=0:01:08.95    \nframe=   29 fps=0.4 q=25.4 size=     256KiB time=00:00:00.90 bitrate=2330.6kbits/s speed=0.0129x elapsed=0:01:09.50    \nframe=   29 fps=0.4 q=25.4 size=     256KiB time=00:00:00.90 bitrate=2330.6kbits/s speed=0.0128x elapsed=0:01:10.05    \nframe=   29 fps=0.4 q=25.4 size=     256KiB time=00:00:00.90 bitrate=2330.6kbits/s speed=0.0128x elapsed=0:01:10.58    \nframe=   29 fps=0.4 q=25.4 size=     256KiB time=00:00:00.90 bitrate=2330.6kbits/s speed=0.0127x elapsed=0:01:11.12    \nframe=   29 fps=0.4 q=25.4 size=     256KiB time=00:00:00.90 bitrate=2330.6kbits/s speed=0.0126x elapsed=0:01:11.63    \nframe=   29 fps=0.4 q=25.4 size=     256KiB time=00:00:00.90 bitrate=2330.6kbits/s speed=0.0125x elapsed=0:01:12.15    \nframe=   29 fps=0.4 q=25.4 size=     256KiB time=00:00:00.90 bitrate=2330.6kbits/s speed=0.0124x elapsed=0:01:12.74    \nframe=   29 fps=0.4 q=25.4 size=     256KiB time=00:00:00.90 bitrate=2330.6kbits/s speed=0.0123x elapsed=0:01:13.29    \nframe=   29 fps=0.4 q=25.4 size=     256KiB time=00:00:00.90 bitrate=2330.6kbits/s speed=0.0122x elapsed=0:01:13.85    \nframe=   30 fps=0.4 q=25.2 size=     256KiB time=00:00:00.93 bitrate=2247.3kbits/s speed=0.0125x elapsed=0:01:14.42    \nframe=   30 fps=0.4 q=25.2 size=     256KiB time=00:00:00.93 bitrate=2247.3kbits/s speed=0.0125x elapsed=0:01:14.96    \nframe=   30 fps=0.4 q=25.2 size=     256KiB time=00:00:00.93 bitrate=2247.3kbits/s speed=0.0124x elapsed=0:01:15.50    \nframe=   30 fps=0.4 q=25.2 size=     256KiB time=00:00:00.93 bitrate=2247.3kbits/s speed=0.0123x elapsed=0:01:16.05    \nframe=   30 fps=0.4 q=25.2 size=     256KiB time=00:00:00.93 bitrate=2247.3kbits/s speed=0.0122x elapsed=0:01:16.64    \nframe=   30 fps=0.4 q=25.2 size=     256KiB time=00:00:00.93 bitrate=2247.3kbits/s speed=0.0121x elapsed=0:01:17.19    \nframe=   30 fps=0.4 q=25.2 size=     256KiB time=00:00:00.93 bitrate=2247.3kbits/s speed=0.012x elapsed=0:01:17.72    \nframe=   30 fps=0.4 q=25.2 size=     256KiB time=00:00:00.93 bitrate=2247.3kbits/s speed=0.0119x elapsed=0:01:18.25    \nframe=   30 fps=0.4 q=25.2 size=     256KiB time=00:00:00.93 bitrate=2247.3kbits/s speed=0.0118x elapsed=0:01:18.79    \nframe=   30 fps=0.4 q=25.2 size=     256KiB time=00:00:00.93 bitrate=2247.3kbits/s speed=0.0118x elapsed=0:01:19.37    \nframe=   30 fps=0.4 q=25.2 size=     256KiB time=00:00:00.93 bitrate=2247.3kbits/s speed=0.0117x elapsed=0:01:19.96    \nframe=   30 fps=0.4 q=25.2 size=     256KiB time=00:00:00.93 bitrate=2247.3kbits/s speed=0.0116x elapsed=0:01:20.52    \nframe=   30 fps=0.4 q=25.2 size=     256KiB time=00:00:00.93 bitrate=2247.3kbits/s speed=0.0115x elapsed=0:01:21.08    \nframe=   30 fps=0.4 q=25.2 size=     256KiB time=00:00:00.93 bitrate=2247.3kbits/s speed=0.0114x elapsed=0:01:21.63    \nframe=   31 fps=0.4 q=25.2 size=     256KiB time=00:00:00.96 bitrate=2169.8kbits/s speed=0.0118x elapsed=0:01:22.17    \nframe=   31 fps=0.4 q=25.2 size=     256KiB time=00:00:00.96 bitrate=2169.8kbits/s speed=0.0117x elapsed=0:01:22.71    \nframe=   31 fps=0.4 q=25.2 size=     256KiB time=00:00:00.96 bitrate=2169.8kbits/s speed=0.0116x elapsed=0:01:23.25    \nframe=   31 fps=0.4 q=25.2 size=     256KiB time=00:00:00.96 bitrate=2169.8kbits/s speed=0.0115x elapsed=0:01:23.77    \nframe=   31 fps=0.4 q=25.2 size=     256KiB time=00:00:00.96 bitrate=2169.8kbits/s speed=0.0115x elapsed=0:01:24.30    \nframe=   31 fps=0.4 q=25.2 size=     256KiB time=00:00:00.96 bitrate=2169.8kbits/s speed=0.0114x elapsed=0:01:24.83    \nframe=   32 fps=0.4 q=22.5 size=     256KiB time=00:00:01.00 bitrate=2097.5kbits/s speed=0.0117x elapsed=0:01:25.35    \nframe=   32 fps=0.4 q=22.5 size=     256KiB time=00:00:01.00 bitrate=2097.5kbits/s speed=0.0116x elapsed=0:01:25.87    \nframe=   32 fps=0.4 q=22.5 size=     256KiB time=00:00:01.00 bitrate=2097.5kbits/s speed=0.0116x elapsed=0:01:26.38    \nframe=   32 fps=0.4 q=22.5 size=     256KiB time=00:00:01.00 bitrate=2097.5kbits/s speed=0.0115x elapsed=0:01:26.90    \nframe=   33 fps=0.4 q=23.8 size=     256KiB time=00:00:01.03 bitrate=2029.8kbits/s speed=0.0118x elapsed=0:01:27.45    \nframe=   33 fps=0.4 q=23.8 size=     256KiB time=00:00:01.03 bitrate=2029.8kbits/s speed=0.0117x elapsed=0:01:27.96    \nframe=   33 fps=0.4 q=23.8 size=     256KiB time=00:00:01.03 bitrate=2029.8kbits/s speed=0.0117x elapsed=0:01:28.50    \nframe=   33 fps=0.4 q=23.8 size=     256KiB time=00:00:01.03 bitrate=2029.8kbits/s speed=0.0116x elapsed=0:01:29.02    \nframe=   33 fps=0.4 q=23.8 size=     256KiB time=00:00:01.03 bitrate=2029.8kbits/s speed=0.0115x elapsed=0:01:29.52    \nframe=   33 fps=0.4 q=23.8 size=     256KiB time=00:00:01.03 bitrate=2029.8kbits/s speed=0.0115x elapsed=0:01:30.04    \nframe=   34 fps=0.4 q=25.2 size=     256KiB time=00:00:01.06 bitrate=1966.4kbits/s speed=0.0118x elapsed=0:01:30.55    \nframe=   34 fps=0.4 q=25.2 size=     256KiB time=00:00:01.06 bitrate=1966.4kbits/s speed=0.0117x elapsed=0:01:31.09    \nframe=   34 fps=0.4 q=25.2 size=     256KiB time=00:00:01.06 bitrate=1966.4kbits/s speed=0.0116x elapsed=0:01:31.61    \nframe=   34 fps=0.4 q=25.2 size=     256KiB time=00:00:01.06 bitrate=1966.4kbits/s speed=0.0116x elapsed=0:01:32.12    \nframe=   34 fps=0.4 q=25.2 size=     256KiB time=00:00:01.06 bitrate=1966.4kbits/s speed=0.0115x elapsed=0:01:32.63    \nframe=   34 fps=0.4 q=25.2 size=     256KiB time=00:00:01.06 bitrate=1966.4kbits/s speed=0.0115x elapsed=0:01:33.14    \nframe=   35 fps=0.4 q=25.3 size=     256KiB time=00:00:01.10 bitrate=1906.8kbits/s speed=0.0117x elapsed=0:01:33.68    \nframe=   35 fps=0.4 q=25.3 size=     256KiB time=00:00:01.10 bitrate=1906.8kbits/s speed=0.0117x elapsed=0:01:34.22    \nframe=   35 fps=0.4 q=25.3 size=     256KiB time=00:00:01.10 bitrate=1906.8kbits/s speed=0.0116x elapsed=0:01:34.72    \nframe=   35 fps=0.4 q=25.3 size=     256KiB time=00:00:01.10 bitrate=1906.8kbits/s speed=0.0115x elapsed=0:01:35.25    \nframe=   36 fps=0.4 q=22.4 size=     256KiB time=00:00:01.13 bitrate=1850.7kbits/s speed=0.0118x elapsed=0:01:35.76    \nframe=   36 fps=0.4 q=22.4 size=     256KiB time=00:00:01.13 bitrate=1850.7kbits/s speed=0.0118x elapsed=0:01:36.27    \nframe=   37 fps=0.4 q=23.2 size=     256KiB time=00:00:01.16 bitrate=1797.9kbits/s speed=0.0121x elapsed=0:01:36.79    \nframe=   37 fps=0.4 q=23.2 size=     256KiB time=00:00:01.16 bitrate=1797.9kbits/s speed=0.012x elapsed=0:01:37.30    \nframe=   38 fps=0.4 q=25.3 size=     256KiB time=00:00:01.20 bitrate=1747.9kbits/s speed=0.0123x elapsed=0:01:37.84    \nframe=   38 fps=0.4 q=25.3 size=     256KiB time=00:00:01.20 bitrate=1747.9kbits/s speed=0.0122x elapsed=0:01:38.39    \nframe=   38 fps=0.4 q=25.3 size=     256KiB time=00:00:01.20 bitrate=1747.9kbits/s speed=0.0121x elapsed=0:01:38.91    \nframe=   38 fps=0.4 q=25.3 size=     256KiB time=00:00:01.20 bitrate=1747.9kbits/s speed=0.0121x elapsed=0:01:39.41    \nframe=   38 fps=0.4 q=25.3 size=     256KiB time=00:00:01.20 bitrate=1747.9kbits/s speed=0.012x elapsed=0:01:39.93    \nframe=   39 fps=0.4 q=25.4 size=     256KiB time=00:00:01.20 bitrate=1747.9kbits/s speed=0.0119x elapsed=0:01:40.44    \nframe=   39 fps=0.4 q=25.4 size=     256KiB time=00:00:01.23 bitrate=1700.7kbits/s speed=0.0122x elapsed=0:01:41.00    \nframe=   39 fps=0.4 q=25.4 size=     256KiB time=00:00:01.23 bitrate=1700.7kbits/s speed=0.0121x elapsed=0:01:41.51    \nframe=   39 fps=0.4 q=25.4 size=     256KiB time=00:00:01.23 bitrate=1700.7kbits/s speed=0.0121x elapsed=0:01:42.02    \nframe=   39 fps=0.4 q=25.4 size=     256KiB time=00:00:01.23 bitrate=1700.7kbits/s speed=0.012x elapsed=0:01:42.54    \nframe=   40 fps=0.4 q=25.4 size=     256KiB time=00:00:01.26 bitrate=1655.9kbits/s speed=0.0123x elapsed=0:01:43.05    \nframe=   40 fps=0.4 q=25.4 size=     256KiB time=00:00:01.26 bitrate=1655.9kbits/s speed=0.0122x elapsed=0:01:43.57    \nframe=   41 fps=0.4 q=22.3 size=     256KiB time=00:00:01.30 bitrate=1613.5kbits/s speed=0.0125x elapsed=0:01:44.09    \nframe=   41 fps=0.4 q=22.3 size=     256KiB time=00:00:01.30 bitrate=1613.5kbits/s speed=0.0124x elapsed=0:01:44.62    \nframe=   41 fps=0.4 q=22.3 size=     256KiB time=00:00:01.30 bitrate=1613.5kbits/s speed=0.0124x elapsed=0:01:45.14    \nframe=   41 fps=0.4 q=22.3 size=     256KiB time=00:00:01.30 bitrate=1613.5kbits/s speed=0.0123x elapsed=0:01:45.67    \nframe=   41 fps=0.4 q=22.3 size=     256KiB time=00:00:01.30 bitrate=1613.5kbits/s speed=0.0122x elapsed=0:01:46.19    \nframe=   42 fps=0.4 q=23.1 size=     256KiB time=00:00:01.33 bitrate=1573.1kbits/s speed=0.0125x elapsed=0:01:46.73    \nframe=   42 fps=0.4 q=23.1 size=     256KiB time=00:00:01.33 bitrate=1573.1kbits/s speed=0.0124x elapsed=0:01:47.28    \nframe=   42 fps=0.4 q=23.1 size=     256KiB time=00:00:01.33 bitrate=1573.1kbits/s speed=0.0124x elapsed=0:01:47.78    \nframe=   42 fps=0.4 q=23.1 size=     256KiB time=00:00:01.33 bitrate=1573.1kbits/s speed=0.0123x elapsed=0:01:48.31    \nframe=   43 fps=0.4 q=25.3 size=     256KiB time=00:00:01.36 bitrate=1534.8kbits/s speed=0.0126x elapsed=0:01:48.89    \nframe=   43 fps=0.4 q=25.3 size=     256KiB time=00:00:01.36 bitrate=1534.8kbits/s speed=0.0125x elapsed=0:01:49.41    \nframe=   43 fps=0.4 q=25.3 size=     256KiB time=00:00:01.36 bitrate=1534.8kbits/s speed=0.0124x elapsed=0:01:49.93    \nframe=   43 fps=0.4 q=25.3 size=     256KiB time=00:00:01.36 bitrate=1534.8kbits/s speed=0.0124x elapsed=0:01:50.44    \nframe=   43 fps=0.4 q=25.3 size=     256KiB time=00:00:01.36 bitrate=1534.8kbits/s speed=0.0123x elapsed=0:01:50.96    \nframe=   43 fps=0.4 q=25.3 size=     256KiB time=00:00:01.36 bitrate=1534.8kbits/s speed=0.0123x elapsed=0:01:51.50    \nframe=   43 fps=0.4 q=25.3 size=     256KiB time=00:00:01.36 bitrate=1534.8kbits/s speed=0.0122x elapsed=0:01:52.01    \nframe=   44 fps=0.4 q=25.5 size=     256KiB time=00:00:01.40 bitrate=1498.2kbits/s speed=0.0124x elapsed=0:01:52.54    \nframe=   44 fps=0.4 q=25.5 size=     256KiB time=00:00:01.40 bitrate=1498.2kbits/s speed=0.0124x elapsed=0:01:53.07    \nframe=   44 fps=0.4 q=25.5 size=     256KiB time=00:00:01.40 bitrate=1498.2kbits/s speed=0.0123x elapsed=0:01:53.58    \nframe=   44 fps=0.4 q=25.5 size=     256KiB time=00:00:01.40 bitrate=1498.2kbits/s speed=0.0123x elapsed=0:01:54.10    \nframe=   44 fps=0.4 q=25.5 size=     256KiB time=00:00:01.40 bitrate=1498.2kbits/s speed=0.0122x elapsed=0:01:54.61    \nframe=   44 fps=0.4 q=25.5 size=     256KiB time=00:00:01.40 bitrate=1498.2kbits/s speed=0.0122x elapsed=0:01:55.14    \nframe=   44 fps=0.4 q=25.5 size=     256KiB time=00:00:01.40 bitrate=1498.2kbits/s speed=0.0121x elapsed=0:01:55.66    \nframe=   45 fps=0.4 q=25.3 size=     256KiB time=00:00:01.43 bitrate=1463.4kbits/s speed=0.0123x elapsed=0:01:56.20    \nframe=   45 fps=0.4 q=25.3 size=     256KiB time=00:00:01.43 bitrate=1463.4kbits/s speed=0.0123x elapsed=0:01:56.73    \nframe=   45 fps=0.4 q=25.3 size=     256KiB time=00:00:01.43 bitrate=1463.4kbits/s speed=0.0122x elapsed=0:01:57.26    \nframe=   45 fps=0.4 q=25.3 size=     256KiB time=00:00:01.43 bitrate=1463.4kbits/s speed=0.0122x elapsed=0:01:57.77    \nframe=   45 fps=0.4 q=25.3 size=     256KiB time=00:00:01.43 bitrate=1463.4kbits/s speed=0.0121x elapsed=0:01:58.30    \nframe=   45 fps=0.4 q=25.3 size=     256KiB time=00:00:01.43 bitrate=1463.4kbits/s speed=0.0121x elapsed=0:01:58.83    \nframe=   46 fps=0.4 q=22.6 size=     512KiB time=00:00:01.46 bitrate=2860.0kbits/s speed=0.0123x elapsed=0:01:59.35    \nframe=   46 fps=0.4 q=22.6 size=     512KiB time=00:00:01.46 bitrate=2860.0kbits/s speed=0.0122x elapsed=0:01:59.87    \nframe=   46 fps=0.4 q=22.6 size=     512KiB time=00:00:01.46 bitrate=2860.0kbits/s speed=0.0122x elapsed=0:02:00.38    \nframe=   46 fps=0.4 q=22.6 size=     512KiB time=00:00:01.46 bitrate=2860.0kbits/s speed=0.0121x elapsed=0:02:00.91    \nframe=   46 fps=0.4 q=22.6 size=     512KiB time=00:00:01.46 bitrate=2860.0kbits/s speed=0.0121x elapsed=0:02:01.45    \nframe=   46 fps=0.4 q=22.6 size=     512KiB time=00:00:01.46 bitrate=2860.0kbits/s speed=0.012x elapsed=0:02:02.00    \nframe=   46 fps=0.4 q=22.6 size=     512KiB time=00:00:01.46 bitrate=2860.0kbits/s speed=0.012x elapsed=0:02:02.58    \nframe=   46 fps=0.4 q=22.6 size=     512KiB time=00:00:01.46 bitrate=2860.0kbits/s speed=0.0119x elapsed=0:02:03.17    \nframe=   46 fps=0.4 q=22.6 size=     512KiB time=00:00:01.46 bitrate=2860.0kbits/s speed=0.0119x elapsed=0:02:03.71    \nframe=   46 fps=0.4 q=22.6 size=     512KiB time=00:00:01.46 bitrate=2860.0kbits/s speed=0.0118x elapsed=0:02:04.28    \nframe=   46 fps=0.4 q=22.6 size=     512KiB time=00:00:01.46 bitrate=2860.0kbits/s speed=0.0117x elapsed=0:02:04.83    \nframe=   46 fps=0.4 q=22.6 size=     512KiB time=00:00:01.46 bitrate=2860.0kbits/s speed=0.0117x elapsed=0:02:05.38    \nframe=   46 fps=0.4 q=22.6 size=     512KiB time=00:00:01.46 bitrate=2860.0kbits/s speed=0.0116x elapsed=0:02:05.95    \nframe=   47 fps=0.4 q=24.5 size=     512KiB time=00:00:01.50 bitrate=2796.4kbits/s speed=0.0119x elapsed=0:02:06.51    \nframe=   47 fps=0.4 q=24.5 size=     512KiB time=00:00:01.50 bitrate=2796.4kbits/s speed=0.0118x elapsed=0:02:07.07    \nframe=   47 fps=0.4 q=24.5 size=     512KiB time=00:00:01.50 bitrate=2796.4kbits/s speed=0.0118x elapsed=0:02:07.60    \nframe=   47 fps=0.4 q=24.5 size=     512KiB time=00:00:01.50 bitrate=2796.4kbits/s speed=0.0117x elapsed=0:02:08.15    \nframe=   47 fps=0.4 q=24.5 size=     512KiB time=00:00:01.50 bitrate=2796.4kbits/s speed=0.0117x elapsed=0:02:08.68    \nframe=   48 fps=0.4 q=25.5 size=     512KiB time=00:00:01.53 bitrate=2735.6kbits/s speed=0.0119x elapsed=0:02:09.22    \nframe=   48 fps=0.4 q=25.5 size=     512KiB time=00:00:01.53 bitrate=2735.6kbits/s speed=0.0118x elapsed=0:02:09.76    \nframe=   48 fps=0.4 q=25.5 size=     512KiB time=00:00:01.53 bitrate=2735.6kbits/s speed=0.0118x elapsed=0:02:10.28    \nframe=   48 fps=0.4 q=25.5 size=     512KiB time=00:00:01.53 bitrate=2735.6kbits/s speed=0.0117x elapsed=0:02:10.83    \nframe=   48 fps=0.4 q=25.5 size=     512KiB time=00:00:01.53 bitrate=2735.6kbits/s speed=0.0117x elapsed=0:02:11.35    \nframe=   48 fps=0.4 q=25.5 size=     512KiB time=00:00:01.53 bitrate=2735.6kbits/s speed=0.0116x elapsed=0:02:11.90    \nframe=   48 fps=0.4 q=25.5 size=     512KiB time=00:00:01.53 bitrate=2735.6kbits/s speed=0.0116x elapsed=0:02:12.45    \nframe=   48 fps=0.4 q=25.5 size=     512KiB time=00:00:01.53 bitrate=2735.6kbits/s speed=0.0115x elapsed=0:02:13.02    \nframe=   48 fps=0.4 q=25.5 size=     512KiB time=00:00:01.53 bitrate=2735.6kbits/s speed=0.0115x elapsed=0:02:13.57    \nframe=   48 fps=0.4 q=25.5 size=     512KiB time=00:00:01.53 bitrate=2735.6kbits/s speed=0.0114x elapsed=0:02:14.20    \nframe=   48 fps=0.4 q=25.5 size=     512KiB time=00:00:01.53 bitrate=2735.6kbits/s speed=0.0114x elapsed=0:02:14.76    \nframe=   48 fps=0.4 q=25.5 size=     512KiB time=00:00:01.53 bitrate=2735.6kbits/s speed=0.0113x elapsed=0:02:15.29    \nframe=   48 fps=0.4 q=25.5 size=     512KiB time=00:00:01.53 bitrate=2735.6kbits/s speed=0.0113x elapsed=0:02:15.83    \nframe=   48 fps=0.4 q=25.5 size=     512KiB time=00:00:01.53 bitrate=2735.6kbits/s speed=0.0112x elapsed=0:02:16.41    \nframe=   49 fps=0.4 q=25.6 size=     512KiB time=00:00:01.56 bitrate=2677.4kbits/s speed=0.0114x elapsed=0:02:16.94    \nframe=   49 fps=0.4 q=25.6 size=     512KiB time=00:00:01.56 bitrate=2677.4kbits/s speed=0.0114x elapsed=0:02:17.46    \nframe=   50 fps=0.4 q=25.5 size=     512KiB time=00:00:01.60 bitrate=2621.7kbits/s speed=0.0116x elapsed=0:02:17.99    \nframe=   50 fps=0.4 q=25.5 size=     512KiB time=00:00:01.60 bitrate=2621.7kbits/s speed=0.0115x elapsed=0:02:18.54    \nframe=   50 fps=0.4 q=25.5 size=     512KiB time=00:00:01.60 bitrate=2621.7kbits/s speed=0.0115x elapsed=0:02:19.10    \nframe=   50 fps=0.4 q=25.5 size=     512KiB time=00:00:01.60 bitrate=2621.7kbits/s speed=0.0115x elapsed=0:02:19.64    \nframe=   50 fps=0.4 q=25.5 size=     512KiB time=00:00:01.60 bitrate=2621.7kbits/s speed=0.0114x elapsed=0:02:20.16    \nframe=   51 fps=0.4 q=22.8 size=     512KiB time=00:00:01.63 bitrate=2568.2kbits/s speed=0.0116x elapsed=0:02:20.68    \nframe=   51 fps=0.4 q=22.8 size=     512KiB time=00:00:01.63 bitrate=2568.2kbits/s speed=0.0116x elapsed=0:02:21.20    \nframe=   52 fps=0.4 q=24.6 size=     512KiB time=00:00:01.66 bitrate=2516.8kbits/s speed=0.0118x elapsed=0:02:21.72    \nframe=   52 fps=0.4 q=24.6 size=     512KiB time=00:00:01.66 bitrate=2516.8kbits/s speed=0.0117x elapsed=0:02:22.25    \nframe=   52 fps=0.4 q=24.6 size=     512KiB time=00:00:01.66 bitrate=2516.8kbits/s speed=0.0117x elapsed=0:02:22.81    \nframe=   52 fps=0.4 q=24.6 size=     512KiB time=00:00:01.66 bitrate=2516.8kbits/s speed=0.0116x elapsed=0:02:23.33    \nframe=   52 fps=0.4 q=24.6 size=     512KiB time=00:00:01.66 bitrate=2516.8kbits/s speed=0.0116x elapsed=0:02:23.85    \nframe=   52 fps=0.4 q=24.6 size=     512KiB time=00:00:01.66 bitrate=2516.8kbits/s speed=0.0115x elapsed=0:02:24.37    \nframe=   52 fps=0.4 q=24.6 size=     512KiB time=00:00:01.66 bitrate=2516.8kbits/s speed=0.0115x elapsed=0:02:24.88    \nframe=   52 fps=0.4 q=24.6 size=     512KiB time=00:00:01.66 bitrate=2516.8kbits/s speed=0.0115x elapsed=0:02:25.42    \nframe=   53 fps=0.4 q=26.1 size=     512KiB time=00:00:01.70 bitrate=2467.4kbits/s speed=0.0116x elapsed=0:02:25.92    \nframe=   53 fps=0.4 q=26.1 size=     512KiB time=00:00:01.70 bitrate=2467.4kbits/s speed=0.0116x elapsed=0:02:26.46    \nframe=   53 fps=0.4 q=26.1 size=     512KiB time=00:00:01.70 bitrate=2467.4kbits/s speed=0.0116x elapsed=0:02:26.99    \nframe=   53 fps=0.4 q=26.1 size=     512KiB time=00:00:01.70 bitrate=2467.4kbits/s speed=0.0115x elapsed=0:02:27.52    \nframe=   53 fps=0.4 q=26.1 size=     512KiB time=00:00:01.70 bitrate=2467.4kbits/s speed=0.0115x elapsed=0:02:28.05    \nframe=   53 fps=0.4 q=26.1 size=     512KiB time=00:00:01.70 bitrate=2467.4kbits/s speed=0.0114x elapsed=0:02:28.57    \nframe=   54 fps=0.4 q=26.2 size=     512KiB time=00:00:01.73 bitrate=2420.0kbits/s speed=0.0116x elapsed=0:02:29.10    \nframe=   54 fps=0.4 q=26.2 size=     512KiB time=00:00:01.73 bitrate=2420.0kbits/s speed=0.0116x elapsed=0:02:29.65    \nframe=   54 fps=0.4 q=26.2 size=     512KiB time=00:00:01.73 bitrate=2420.0kbits/s speed=0.0115x elapsed=0:02:30.19    \nframe=   55 fps=0.4 q=22.9 size=     512KiB time=00:00:01.76 bitrate=2374.3kbits/s speed=0.0117x elapsed=0:02:30.73    \nframe=   55 fps=0.4 q=22.9 size=     512KiB time=00:00:01.76 bitrate=2374.3kbits/s speed=0.0117x elapsed=0:02:31.27    \nframe=   55 fps=0.4 q=22.9 size=     512KiB time=00:00:01.76 bitrate=2374.3kbits/s speed=0.0116x elapsed=0:02:31.79    \nframe=   56 fps=0.4 q=24.9 size=     512KiB time=00:00:01.80 bitrate=2330.4kbits/s speed=0.0118x elapsed=0:02:32.31    \nframe=   56 fps=0.4 q=24.9 size=     512KiB time=00:00:01.80 bitrate=2330.4kbits/s speed=0.0118x elapsed=0:02:32.84    \nframe=   56 fps=0.4 q=24.9 size=     512KiB time=00:00:01.80 bitrate=2330.4kbits/s speed=0.0117x elapsed=0:02:33.35    \nframe=   56 fps=0.4 q=24.9 size=     512KiB time=00:00:01.80 bitrate=2330.4kbits/s speed=0.0117x elapsed=0:02:33.87    \nframe=   56 fps=0.4 q=24.9 size=     512KiB time=00:00:01.80 bitrate=2330.4kbits/s speed=0.0117x elapsed=0:02:34.38    \nframe=   57 fps=0.4 q=26.3 size=     512KiB time=00:00:01.83 bitrate=2288.0kbits/s speed=0.0118x elapsed=0:02:34.90    \nframe=   57 fps=0.4 q=26.3 size=     512KiB time=00:00:01.83 bitrate=2288.0kbits/s speed=0.0118x elapsed=0:02:35.42    \nframe=   57 fps=0.4 q=26.3 size=     512KiB time=00:00:01.83 bitrate=2288.0kbits/s speed=0.0118x elapsed=0:02:35.94    \nframe=   57 fps=0.4 q=26.3 size=     512KiB time=00:00:01.83 bitrate=2288.0kbits/s speed=0.0117x elapsed=0:02:36.48    \nframe=   57 fps=0.4 q=26.3 size=     512KiB time=00:00:01.83 bitrate=2288.0kbits/s speed=0.0117x elapsed=0:02:37.03    \nframe=   57 fps=0.4 q=26.3 size=     512KiB time=00:00:01.83 bitrate=2288.0kbits/s speed=0.0116x elapsed=0:02:37.57    \nframe=   57 fps=0.4 q=26.3 size=     512KiB time=00:00:01.83 bitrate=2288.0kbits/s speed=0.0116x elapsed=0:02:38.08    \nframe=   58 fps=0.4 q=26.5 size=     512KiB time=00:00:01.86 bitrate=2247.1kbits/s speed=0.0118x elapsed=0:02:38.60    \nframe=   58 fps=0.4 q=26.5 size=     512KiB time=00:00:01.86 bitrate=2247.1kbits/s speed=0.0117x elapsed=0:02:39.12    \nframe=   58 fps=0.4 q=26.5 size=     512KiB time=00:00:01.86 bitrate=2247.1kbits/s speed=0.0117x elapsed=0:02:39.65    \nframe=   58 fps=0.4 q=26.5 size=     512KiB time=00:00:01.86 bitrate=2247.1kbits/s speed=0.0117x elapsed=0:02:40.18    \nframe=   58 fps=0.4 q=26.5 size=     512KiB time=00:00:01.86 bitrate=2247.1kbits/s speed=0.0116x elapsed=0:02:40.72    \nframe=   59 fps=0.4 q=26.3 size=     512KiB time=00:00:01.90 bitrate=2207.7kbits/s speed=0.0118x elapsed=0:02:41.24    \nframe=   59 fps=0.4 q=26.3 size=     512KiB time=00:00:01.90 bitrate=2207.7kbits/s speed=0.0117x elapsed=0:02:41.79    \nframe=   59 fps=0.4 q=26.3 size=     512KiB time=00:00:01.90 bitrate=2207.7kbits/s speed=0.0117x elapsed=0:02:42.31    \nframe=   59 fps=0.4 q=26.3 size=     512KiB time=00:00:01.90 bitrate=2207.7kbits/s speed=0.0117x elapsed=0:02:42.85    \nframe=   59 fps=0.4 q=26.3 size=     512KiB time=00:00:01.90 bitrate=2207.7kbits/s speed=0.0116x elapsed=0:02:43.40    \nframe=   59 fps=0.4 q=26.3 size=     512KiB time=00:00:01.90 bitrate=2207.7kbits/s speed=0.0116x elapsed=0:02:44.02    \nframe=   59 fps=0.4 q=26.3 size=     512KiB time=00:00:01.90 bitrate=2207.7kbits/s speed=0.0115x elapsed=0:02:44.59    \nframe=   59 fps=0.4 q=26.3 size=     512KiB time=00:00:01.90 bitrate=2207.7kbits/s speed=0.0115x elapsed=0:02:45.25    \nframe=   59 fps=0.4 q=26.3 size=     512KiB time=00:00:01.90 bitrate=2207.7kbits/s speed=0.0115x elapsed=0:02:45.79    \nframe=   60 fps=0.4 q=23.0 size=     512KiB time=00:00:01.93 bitrate=2169.7kbits/s speed=0.0116x elapsed=0:02:46.34    \nframe=   60 fps=0.4 q=23.0 size=     512KiB time=00:00:01.93 bitrate=2169.7kbits/s speed=0.0116x elapsed=0:02:46.85    \nframe=   61 fps=0.4 q=25.8 size=     512KiB time=00:00:01.96 bitrate=2132.9kbits/s speed=0.0118x elapsed=0:02:47.37    \nframe=   61 fps=0.4 q=25.8 size=     512KiB time=00:00:01.96 bitrate=2132.9kbits/s speed=0.0117x elapsed=0:02:47.90    \nframe=   61 fps=0.4 q=25.8 size=     512KiB time=00:00:01.96 bitrate=2132.9kbits/s speed=0.0117x elapsed=0:02:48.44    \nframe=   61 fps=0.4 q=25.8 size=     512KiB time=00:00:01.96 bitrate=2132.9kbits/s speed=0.0116x elapsed=0:02:48.99    \nframe=   61 fps=0.4 q=25.8 size=     512KiB time=00:00:01.96 bitrate=2132.9kbits/s speed=0.0116x elapsed=0:02:49.52    \nframe=   61 fps=0.4 q=25.8 size=     512KiB time=00:00:01.96 bitrate=2132.9kbits/s speed=0.0116x elapsed=0:02:50.08    \nframe=   61 fps=0.4 q=25.8 size=     512KiB time=00:00:01.96 bitrate=2132.9kbits/s speed=0.0115x elapsed=0:02:50.64    \nframe=   61 fps=0.4 q=25.8 size=     512KiB time=00:00:01.96 bitrate=2132.9kbits/s speed=0.0115x elapsed=0:02:51.18    \nframe=   62 fps=0.4 q=26.4 size=     768KiB time=00:00:02.00 bitrate=3145.9kbits/s speed=0.0116x elapsed=0:02:51.71    \nframe=   62 fps=0.4 q=26.4 size=     768KiB time=00:00:02.00 bitrate=3145.9kbits/s speed=0.0116x elapsed=0:02:52.28    \nframe=   62 fps=0.4 q=26.4 size=     768KiB time=00:00:02.00 bitrate=3145.9kbits/s speed=0.0116x elapsed=0:02:52.84    \nframe=   62 fps=0.4 q=26.4 size=     768KiB time=00:00:02.00 bitrate=3145.9kbits/s speed=0.0115x elapsed=0:02:53.36    \nframe=   62 fps=0.4 q=26.4 size=     768KiB time=00:00:02.00 bitrate=3145.9kbits/s speed=0.0115x elapsed=0:02:53.93    \nframe=   62 fps=0.4 q=26.4 size=     768KiB time=00:00:02.00 bitrate=3145.9kbits/s speed=0.0115x elapsed=0:02:54.50    \nframe=   62 fps=0.4 q=26.4 size=     768KiB time=00:00:02.00 bitrate=3145.9kbits/s speed=0.0114x elapsed=0:02:55.03    \nframe=   62 fps=0.4 q=26.4 size=     768KiB time=00:00:02.00 bitrate=3145.9kbits/s speed=0.0114x elapsed=0:02:55.56    \nframe=   62 fps=0.4 q=26.4 size=     768KiB time=00:00:02.00 bitrate=3145.9kbits/s speed=0.0114x elapsed=0:02:56.09    \nframe=   62 fps=0.4 q=26.4 size=     768KiB time=00:00:02.00 bitrate=3145.9kbits/s speed=0.0113x elapsed=0:02:56.64    \nframe=   62 fps=0.3 q=26.4 size=     768KiB time=00:00:02.00 bitrate=3145.9kbits/s speed=0.0113x elapsed=0:02:57.20    \nframe=   62 fps=0.3 q=26.4 size=     768KiB time=00:00:02.00 bitrate=3145.9kbits/s speed=0.0112x elapsed=0:02:57.78    \nframe=   62 fps=0.3 q=26.4 size=     768KiB time=00:00:02.00 bitrate=3145.9kbits/s speed=0.0112x elapsed=0:02:58.35    \nframe=   62 fps=0.3 q=26.4 size=     768KiB time=00:00:02.00 bitrate=3145.9kbits/s speed=0.0112x elapsed=0:02:58.95    \nframe=   62 fps=0.3 q=26.4 size=     768KiB time=00:00:02.00 bitrate=3145.9kbits/s speed=0.0111x elapsed=0:02:59.59    \nframe=   63 fps=0.3 q=27.2 size=     768KiB time=00:00:02.03 bitrate=3094.3kbits/s speed=0.0113x elapsed=0:03:00.20    \nframe=   63 fps=0.3 q=27.2 size=     768KiB time=00:00:02.03 bitrate=3094.3kbits/s speed=0.0112x elapsed=0:03:00.75    \nframe=   63 fps=0.3 q=27.2 size=     768KiB time=00:00:02.03 bitrate=3094.3kbits/s speed=0.0112x elapsed=0:03:01.27    \nframe=   63 fps=0.3 q=27.2 size=     768KiB time=00:00:02.03 bitrate=3094.3kbits/s speed=0.0112x elapsed=0:03:01.78    \nframe=   64 fps=0.4 q=26.9 size=     768KiB time=00:00:02.06 bitrate=3044.4kbits/s speed=0.0113x elapsed=0:03:02.31    \nframe=   64 fps=0.3 q=26.9 size=     768KiB time=00:00:02.06 bitrate=3044.4kbits/s speed=0.0113x elapsed=0:03:02.91    \nframe=   64 fps=0.3 q=26.9 size=     768KiB time=00:00:02.06 bitrate=3044.4kbits/s speed=0.0113x elapsed=0:03:03.46    \nframe=   64 fps=0.3 q=26.9 size=     768KiB time=00:00:02.06 bitrate=3044.4kbits/s speed=0.0112x elapsed=0:03:04.02    \nframe=   64 fps=0.3 q=26.9 size=     768KiB time=00:00:02.06 bitrate=3044.4kbits/s speed=0.0112x elapsed=0:03:04.53    \nframe=   64 fps=0.3 q=26.9 size=     768KiB time=00:00:02.06 bitrate=3044.4kbits/s speed=0.0112x elapsed=0:03:05.06    \nframe=   64 fps=0.3 q=26.9 size=     768KiB time=00:00:02.06 bitrate=3044.4kbits/s speed=0.0111x elapsed=0:03:05.57    \nframe=   64 fps=0.3 q=26.9 size=     768KiB time=00:00:02.06 bitrate=3044.4kbits/s speed=0.0111x elapsed=0:03:06.11    \nframe=   65 fps=0.3 q=23.4 size=     768KiB time=00:00:02.10 bitrate=2996.1kbits/s speed=0.0112x elapsed=0:03:06.73    \nframe=   65 fps=0.3 q=23.4 size=     768KiB time=00:00:02.10 bitrate=2996.1kbits/s speed=0.0112x elapsed=0:03:07.24    \nframe=   66 fps=0.4 q=25.3 size=     768KiB time=00:00:02.13 bitrate=2949.3kbits/s speed=0.0114x elapsed=0:03:07.77    \nframe=   66 fps=0.4 q=25.3 size=     768KiB time=00:00:02.13 bitrate=2949.3kbits/s speed=0.0113x elapsed=0:03:08.33    \nframe=   67 fps=0.4 q=26.8 size=     768KiB time=00:00:02.16 bitrate=2903.9kbits/s speed=0.0115x elapsed=0:03:08.87    \nframe=   67 fps=0.4 q=26.8 size=     768KiB time=00:00:02.16 bitrate=2903.9kbits/s speed=0.0114x elapsed=0:03:09.40    \nframe=   67 fps=0.4 q=26.8 size=     768KiB time=00:00:02.16 bitrate=2903.9kbits/s speed=0.0114x elapsed=0:03:09.92    \nframe=   68 fps=0.4 q=27.4 size=     768KiB time=00:00:02.20 bitrate=2859.9kbits/s speed=0.0116x elapsed=0:03:10.44    \nframe=   68 fps=0.4 q=27.4 size=     768KiB time=00:00:02.20 bitrate=2859.9kbits/s speed=0.0115x elapsed=0:03:10.97    \nframe=   68 fps=0.4 q=27.4 size=     768KiB time=00:00:02.20 bitrate=2859.9kbits/s speed=0.0115x elapsed=0:03:11.52    \nframe=   68 fps=0.4 q=27.4 size=     768KiB time=00:00:02.20 bitrate=2859.9kbits/s speed=0.0115x elapsed=0:03:12.05    \nframe=   68 fps=0.4 q=27.4 size=     768KiB time=00:00:02.20 bitrate=2859.9kbits/s speed=0.0114x elapsed=0:03:12.59    \nframe=   68 fps=0.4 q=27.4 size=     768KiB time=00:00:02.20 bitrate=2859.9kbits/s speed=0.0114x elapsed=0:03:13.18    \nframe=   68 fps=0.4 q=27.4 size=     768KiB time=00:00:02.20 bitrate=2859.9kbits/s speed=0.0114x elapsed=0:03:13.76    \nframe=   68 fps=0.3 q=27.4 size=     768KiB time=00:00:02.20 bitrate=2859.9kbits/s speed=0.0113x elapsed=0:03:14.35    \nframe=   69 fps=0.4 q=27.4 size=     768KiB time=00:00:02.23 bitrate=2817.2kbits/s speed=0.0115x elapsed=0:03:14.87    \nframe=   69 fps=0.4 q=27.4 size=     768KiB time=00:00:02.23 bitrate=2817.2kbits/s speed=0.0114x elapsed=0:03:15.38    \nframe=   69 fps=0.4 q=27.4 size=     768KiB time=00:00:02.23 bitrate=2817.2kbits/s speed=0.0114x elapsed=0:03:15.90    \nframe=   69 fps=0.4 q=27.4 size=     768KiB time=00:00:02.23 bitrate=2817.2kbits/s speed=0.0114x elapsed=0:03:16.41    \nframe=   69 fps=0.4 q=27.4 size=     768KiB time=00:00:02.23 bitrate=2817.2kbits/s speed=0.0113x elapsed=0:03:16.93    \nframe=   69 fps=0.3 q=27.4 size=     768KiB time=00:00:02.23 bitrate=2817.2kbits/s speed=0.0113x elapsed=0:03:17.45    \nframe=   69 fps=0.3 q=27.4 size=     768KiB time=00:00:02.23 bitrate=2817.2kbits/s speed=0.0113x elapsed=0:03:17.99    \nframe=   70 fps=0.4 q=23.5 size=     768KiB time=00:00:02.26 bitrate=2775.8kbits/s speed=0.0114x elapsed=0:03:18.53    \nframe=   70 fps=0.4 q=23.5 size=     768KiB time=00:00:02.26 bitrate=2775.8kbits/s speed=0.0114x elapsed=0:03:19.09    \nframe=   70 fps=0.4 q=23.5 size=     768KiB time=00:00:02.26 bitrate=2775.8kbits/s speed=0.0114x elapsed=0:03:19.63    \nframe=   70 fps=0.3 q=23.5 size=     768KiB time=00:00:02.26 bitrate=2775.8kbits/s speed=0.0113x elapsed=0:03:20.21    \nframe=   71 fps=0.4 q=26.3 size=     768KiB time=00:00:02.30 bitrate=2735.6kbits/s speed=0.0115x elapsed=0:03:20.83    \nframe=   71 fps=0.4 q=26.3 size=     768KiB time=00:00:02.30 bitrate=2735.6kbits/s speed=0.0114x elapsed=0:03:21.37    \nframe=   71 fps=0.4 q=26.3 size=     768KiB time=00:00:02.30 bitrate=2735.6kbits/s speed=0.0114x elapsed=0:03:21.96    \nframe=   71 fps=0.4 q=26.3 size=     768KiB time=00:00:02.30 bitrate=2735.6kbits/s speed=0.0114x elapsed=0:03:22.54    \nframe=   71 fps=0.3 q=26.3 size=     768KiB time=00:00:02.30 bitrate=2735.6kbits/s speed=0.0113x elapsed=0:03:23.10    \nframe=   71 fps=0.3 q=26.3 size=     768KiB time=00:00:02.30 bitrate=2735.6kbits/s speed=0.0113x elapsed=0:03:23.66    \nframe=   71 fps=0.3 q=26.3 size=     768KiB time=00:00:02.30 bitrate=2735.6kbits/s speed=0.0113x elapsed=0:03:24.21    \nframe=   72 fps=0.4 q=27.2 size=     768KiB time=00:00:02.33 bitrate=2696.5kbits/s speed=0.0114x elapsed=0:03:24.78    \nframe=   72 fps=0.4 q=27.2 size=     768KiB time=00:00:02.33 bitrate=2696.5kbits/s speed=0.0114x elapsed=0:03:25.35    \nframe=   73 fps=0.4 q=27.4 size=     768KiB time=00:00:02.36 bitrate=2658.5kbits/s speed=0.0115x elapsed=0:03:25.92    \nframe=   73 fps=0.4 q=27.4 size=     768KiB time=00:00:02.36 bitrate=2658.5kbits/s speed=0.0115x elapsed=0:03:26.52    \nframe=   73 fps=0.4 q=27.4 size=     768KiB time=00:00:02.36 bitrate=2658.5kbits/s speed=0.0114x elapsed=0:03:27.11    \nframe=   73 fps=0.4 q=27.4 size=     768KiB time=00:00:02.36 bitrate=2658.5kbits/s speed=0.0114x elapsed=0:03:27.68    \nframe=   73 fps=0.4 q=27.4 size=     768KiB time=00:00:02.36 bitrate=2658.5kbits/s speed=0.0114x elapsed=0:03:28.22    \nframe=   73 fps=0.3 q=27.4 size=     768KiB time=00:00:02.36 bitrate=2658.5kbits/s speed=0.0113x elapsed=0:03:28.74    \nframe=   73 fps=0.3 q=27.4 size=     768KiB time=00:00:02.36 bitrate=2658.5kbits/s speed=0.0113x elapsed=0:03:29.30    \nframe=   73 fps=0.3 q=27.4 size=     768KiB time=00:00:02.36 bitrate=2658.5kbits/s speed=0.0113x elapsed=0:03:29.89    \nframe=   73 fps=0.3 q=27.4 size=     768KiB time=00:00:02.36 bitrate=2658.5kbits/s speed=0.0112x elapsed=0:03:30.44    \nframe=   73 fps=0.3 q=27.4 size=     768KiB time=00:00:02.36 bitrate=2658.5kbits/s speed=0.0112x elapsed=0:03:31.03    \nframe=   73 fps=0.3 q=27.4 size=     768KiB time=00:00:02.36 bitrate=2658.5kbits/s speed=0.0112x elapsed=0:03:31.62    \nframe=   73 fps=0.3 q=27.4 size=     768KiB time=00:00:02.36 bitrate=2658.5kbits/s speed=0.0112x elapsed=0:03:32.25    \nframe=   73 fps=0.3 q=27.4 size=     768KiB time=00:00:02.36 bitrate=2658.5kbits/s speed=0.0111x elapsed=0:03:32.84    \nframe=   73 fps=0.3 q=27.4 size=     768KiB time=00:00:02.36 bitrate=2658.5kbits/s speed=0.0111x elapsed=0:03:33.40    \nframe=   73 fps=0.3 q=27.4 size=     768KiB time=00:00:02.36 bitrate=2658.5kbits/s speed=0.0111x elapsed=0:03:33.97    \nframe=   73 fps=0.3 q=27.4 size=     768KiB time=00:00:02.36 bitrate=2658.5kbits/s speed=0.011x elapsed=0:03:34.49    \nframe=   74 fps=0.3 q=27.4 size=     768KiB time=00:00:02.40 bitrate=2621.6kbits/s speed=0.0112x elapsed=0:03:35.03    \nframe=   74 fps=0.3 q=27.4 size=     768KiB time=00:00:02.40 bitrate=2621.6kbits/s speed=0.0111x elapsed=0:03:35.56    \nframe=   75 fps=0.3 q=23.5 size=     768KiB time=00:00:02.43 bitrate=2585.7kbits/s speed=0.0113x elapsed=0:03:36.09    \nframe=   75 fps=0.3 q=23.5 size=     768KiB time=00:00:02.43 bitrate=2585.7kbits/s speed=0.0112x elapsed=0:03:36.60    \nframe=   75 fps=0.3 q=23.5 size=     768KiB time=00:00:02.43 bitrate=2585.7kbits/s speed=0.0112x elapsed=0:03:37.14    \nframe=   75 fps=0.3 q=23.5 size=     768KiB time=00:00:02.43 bitrate=2585.7kbits/s speed=0.0112x elapsed=0:03:37.67    \nframe=   75 fps=0.3 q=23.5 size=     768KiB time=00:00:02.43 bitrate=2585.7kbits/s speed=0.0112x elapsed=0:03:38.18    \nframe=   76 fps=0.3 q=25.6 size=     768KiB time=00:00:02.46 bitrate=2550.7kbits/s speed=0.0113x elapsed=0:03:38.69    \nframe=   76 fps=0.3 q=25.6 size=     768KiB time=00:00:02.46 bitrate=2550.7kbits/s speed=0.0113x elapsed=0:03:39.24    \nframe=   76 fps=0.3 q=25.6 size=     768KiB time=00:00:02.46 bitrate=2550.7kbits/s speed=0.0112x elapsed=0:03:39.77    \nframe=   76 fps=0.3 q=25.6 size=     768KiB time=00:00:02.46 bitrate=2550.7kbits/s speed=0.0112x elapsed=0:03:40.31    \nframe=   76 fps=0.3 q=25.6 size=     768KiB time=00:00:02.46 bitrate=2550.7kbits/s speed=0.0112x elapsed=0:03:40.85    \nframe=   76 fps=0.3 q=25.6 size=     768KiB time=00:00:02.46 bitrate=2550.7kbits/s speed=0.0111x elapsed=0:03:41.37    \nframe=   77 fps=0.3 q=27.4 size=     768KiB time=00:00:02.50 bitrate=2516.7kbits/s speed=0.0113x elapsed=0:03:41.88    \nframe=   77 fps=0.3 q=27.4 size=     768KiB time=00:00:02.50 bitrate=2516.7kbits/s speed=0.0112x elapsed=0:03:42.41    \nframe=   77 fps=0.3 q=27.4 size=     768KiB time=00:00:02.50 bitrate=2516.7kbits/s speed=0.0112x elapsed=0:03:42.93    \nframe=   78 fps=0.3 q=27.6 size=     768KiB time=00:00:02.53 bitrate=2483.6kbits/s speed=0.0113x elapsed=0:03:43.48    \nframe=   78 fps=0.3 q=27.6 size=     768KiB time=00:00:02.53 bitrate=2483.6kbits/s speed=0.0113x elapsed=0:03:44.01    \nframe=   78 fps=0.3 q=27.6 size=     768KiB time=00:00:02.53 bitrate=2483.6kbits/s speed=0.0113x elapsed=0:03:44.56    \nframe=   78 fps=0.3 q=27.6 size=     768KiB time=00:00:02.53 bitrate=2483.6kbits/s speed=0.0113x elapsed=0:03:45.10    \nframe=   78 fps=0.3 q=27.6 size=     768KiB time=00:00:02.53 bitrate=2483.6kbits/s speed=0.0112x elapsed=0:03:45.62    \nframe=   78 fps=0.3 q=27.6 size=     768KiB time=00:00:02.53 bitrate=2483.6kbits/s speed=0.0112x elapsed=0:03:46.13    \nframe=   79 fps=0.3 q=23.6 size=     768KiB time=00:00:02.56 bitrate=2451.4kbits/s speed=0.0113x elapsed=0:03:46.67    \nframe=   79 fps=0.3 q=23.6 size=     768KiB time=00:00:02.56 bitrate=2451.4kbits/s speed=0.0113x elapsed=0:03:47.21    \nframe=   79 fps=0.3 q=23.6 size=     768KiB time=00:00:02.56 bitrate=2451.4kbits/s speed=0.0113x elapsed=0:03:47.73    \nframe=   80 fps=0.4 q=25.3 size=     768KiB time=00:00:02.60 bitrate=2419.9kbits/s speed=0.0114x elapsed=0:03:48.24    \nframe=   80 fps=0.3 q=25.3 size=     768KiB time=00:00:02.60 bitrate=2419.9kbits/s speed=0.0114x elapsed=0:03:48.76    \nframe=   80 fps=0.3 q=25.3 size=     768KiB time=00:00:02.60 bitrate=2419.9kbits/s speed=0.0113x elapsed=0:03:49.31    \nframe=   80 fps=0.3 q=25.3 size=     768KiB time=00:00:02.60 bitrate=2419.9kbits/s speed=0.0113x elapsed=0:03:49.81    \nframe=   81 fps=0.4 q=27.3 size=    1024KiB time=00:00:02.63 bitrate=3185.7kbits/s speed=0.0114x elapsed=0:03:50.34    \nframe=   81 fps=0.4 q=27.3 size=    1024KiB time=00:00:02.63 bitrate=3185.7kbits/s speed=0.0114x elapsed=0:03:50.86    \nframe=   81 fps=0.4 q=27.3 size=    1024KiB time=00:00:02.63 bitrate=3185.7kbits/s speed=0.0114x elapsed=0:03:51.38    \nframe=   81 fps=0.3 q=27.3 size=    1024KiB time=00:00:02.63 bitrate=3185.7kbits/s speed=0.0114x elapsed=0:03:51.90    \nframe=   81 fps=0.3 q=27.3 size=    1024KiB time=00:00:02.63 bitrate=3185.7kbits/s speed=0.0113x elapsed=0:03:52.42    \nframe=   82 fps=0.4 q=27.5 size=    1024KiB time=00:00:02.66 bitrate=3145.9kbits/s speed=0.0114x elapsed=0:03:52.94    \nframe=   82 fps=0.4 q=27.5 size=    1024KiB time=00:00:02.66 bitrate=3145.9kbits/s speed=0.0114x elapsed=0:03:53.46    \nframe=   82 fps=0.4 q=27.5 size=    1024KiB time=00:00:02.66 bitrate=3145.9kbits/s speed=0.0114x elapsed=0:03:54.00    \nframe=   82 fps=0.3 q=27.5 size=    1024KiB time=00:00:02.66 bitrate=3145.9kbits/s speed=0.0114x elapsed=0:03:54.52    \nframe=   82 fps=0.3 q=27.5 size=    1024KiB time=00:00:02.66 bitrate=3145.9kbits/s speed=0.0113x elapsed=0:03:55.06    \nframe=   82 fps=0.3 q=27.5 size=    1024KiB time=00:00:02.66 bitrate=3145.9kbits/s speed=0.0113x elapsed=0:03:55.58    \nframe=   83 fps=0.4 q=27.6 size=    1024KiB time=00:00:02.70 bitrate=3107.0kbits/s speed=0.0114x elapsed=0:03:56.10    \nframe=   83 fps=0.4 q=27.6 size=    1024KiB time=00:00:02.70 bitrate=3107.0kbits/s speed=0.0114x elapsed=0:03:56.63    \nframe=   84 fps=0.4 q=23.7 size=    1024KiB time=00:00:02.73 bitrate=3069.1kbits/s speed=0.0115x elapsed=0:03:57.15    \nframe=   84 fps=0.4 q=23.7 size=    1024KiB time=00:00:02.73 bitrate=3069.1kbits/s speed=0.0115x elapsed=0:03:57.68    \nframe=   85 fps=0.4 q=26.1 size=    1024KiB time=00:00:02.76 bitrate=3032.2kbits/s speed=0.0116x elapsed=0:03:58.20    \nframe=   85 fps=0.4 q=26.1 size=    1024KiB time=00:00:02.76 bitrate=3032.2kbits/s speed=0.0116x elapsed=0:03:58.72    \nframe=   85 fps=0.4 q=26.1 size=    1024KiB time=00:00:02.76 bitrate=3032.2kbits/s speed=0.0116x elapsed=0:03:59.26    \nframe=   86 fps=0.4 q=27.6 size=    1024KiB time=00:00:02.80 bitrate=2996.1kbits/s speed=0.0117x elapsed=0:03:59.80    \nframe=   86 fps=0.4 q=27.6 size=    1024KiB time=00:00:02.80 bitrate=2996.1kbits/s speed=0.0117x elapsed=0:04:00.32    \nframe=   86 fps=0.4 q=27.6 size=    1024KiB time=00:00:02.80 bitrate=2996.1kbits/s speed=0.0116x elapsed=0:04:00.87    \nframe=   86 fps=0.4 q=27.6 size=    1024KiB time=00:00:02.80 bitrate=2996.1kbits/s speed=0.0116x elapsed=0:04:01.40    \nframe=   86 fps=0.4 q=27.6 size=    1024KiB time=00:00:02.80 bitrate=2996.1kbits/s speed=0.0116x elapsed=0:04:01.93    \nframe=   86 fps=0.4 q=27.6 size=    1024KiB time=00:00:02.80 bitrate=2996.1kbits/s speed=0.0115x elapsed=0:04:02.46    \nframe=   87 fps=0.4 q=28.3 size=    1024KiB time=00:00:02.83 bitrate=2960.8kbits/s speed=0.0117x elapsed=0:04:02.98    \nframe=   87 fps=0.4 q=28.3 size=    1024KiB time=00:00:02.83 bitrate=2960.8kbits/s speed=0.0116x elapsed=0:04:03.50    \nframe=   87 fps=0.4 q=28.3 size=    1024KiB time=00:00:02.83 bitrate=2960.8kbits/s speed=0.0116x elapsed=0:04:04.04    \nframe=   87 fps=0.4 q=28.3 size=    1024KiB time=00:00:02.83 bitrate=2960.8kbits/s speed=0.0116x elapsed=0:04:04.58    \nframe=   88 fps=0.4 q=28.2 size=    1024KiB time=00:00:02.86 bitrate=2926.4kbits/s speed=0.0117x elapsed=0:04:05.10    \nframe=   88 fps=0.4 q=28.2 size=    1024KiB time=00:00:02.86 bitrate=2926.4kbits/s speed=0.0117x elapsed=0:04:05.64    \nframe=   88 fps=0.4 q=28.2 size=    1024KiB time=00:00:02.86 bitrate=2926.4kbits/s speed=0.0116x elapsed=0:04:06.19    \nframe=   88 fps=0.4 q=28.2 size=    1024KiB time=00:00:02.86 bitrate=2926.4kbits/s speed=0.0116x elapsed=0:04:06.71    \nframe=   88 fps=0.4 q=28.2 size=    1024KiB time=00:00:02.86 bitrate=2926.4kbits/s speed=0.0116x elapsed=0:04:07.22    \nframe=   88 fps=0.4 q=28.2 size=    1024KiB time=00:00:02.86 bitrate=2926.4kbits/s speed=0.0116x elapsed=0:04:07.76    \nframe=   89 fps=0.4 q=23.6 size=    1024KiB time=00:00:02.90 bitrate=2892.7kbits/s speed=0.0117x elapsed=0:04:08.29    \nframe=   89 fps=0.4 q=23.6 size=    1024KiB time=00:00:02.90 bitrate=2892.7kbits/s speed=0.0117x elapsed=0:04:08.80    \nframe=   89 fps=0.4 q=23.6 size=    1024KiB time=00:00:02.90 bitrate=2892.7kbits/s speed=0.0116x elapsed=0:04:09.34    \nframe=   90 fps=0.4 q=26.4 size=    1024KiB time=00:00:02.93 bitrate=2859.9kbits/s speed=0.0117x elapsed=0:04:09.86    \nframe=   90 fps=0.4 q=26.4 size=    1024KiB time=00:00:02.93 bitrate=2859.9kbits/s speed=0.0117x elapsed=0:04:10.38    \nframe=   91 fps=0.4 q=27.8 size=    1024KiB time=00:00:02.96 bitrate=2827.7kbits/s speed=0.0118x elapsed=0:04:10.90    \nframe=   91 fps=0.4 q=27.8 size=    1024KiB time=00:00:02.96 bitrate=2827.7kbits/s speed=0.0118x elapsed=0:04:11.43    \nframe=   91 fps=0.4 q=27.8 size=    1024KiB time=00:00:02.96 bitrate=2827.7kbits/s speed=0.0118x elapsed=0:04:11.95    \nframe=   91 fps=0.4 q=27.8 size=    1024KiB time=00:00:02.96 bitrate=2827.7kbits/s speed=0.0118x elapsed=0:04:12.47    \nframe=   91 fps=0.4 q=27.8 size=    1024KiB time=00:00:02.96 bitrate=2827.7kbits/s speed=0.0117x elapsed=0:04:12.99    \nframe=   91 fps=0.4 q=27.8 size=    1024KiB time=00:00:02.96 bitrate=2827.7kbits/s speed=0.0117x elapsed=0:04:13.51    \nframe=   92 fps=0.4 q=28.5 size=    1024KiB time=00:00:03.00 bitrate=2796.3kbits/s speed=0.0118x elapsed=0:04:14.02    \nframe=   93 fps=0.4 q=28.4 size=    1024KiB time=00:00:03.03 bitrate=2765.6kbits/s speed=0.0119x elapsed=0:04:14.54    \nframe=   93 fps=0.4 q=28.4 size=    1024KiB time=00:00:03.03 bitrate=2765.6kbits/s speed=0.0119x elapsed=0:04:15.06    \nframe=   93 fps=0.4 q=28.4 size=    1024KiB time=00:00:03.03 bitrate=2765.6kbits/s speed=0.0119x elapsed=0:04:15.59    \nframe=   94 fps=0.4 q=24.3 size=    1024KiB time=00:00:03.06 bitrate=2735.5kbits/s speed=0.012x elapsed=0:04:16.11    \nframe=   94 fps=0.4 q=24.3 size=    1024KiB time=00:00:03.06 bitrate=2735.5kbits/s speed=0.0119x elapsed=0:04:16.65    \nframe=   94 fps=0.4 q=24.3 size=    1024KiB time=00:00:03.06 bitrate=2735.5kbits/s speed=0.0119x elapsed=0:04:17.18    \nframe=   94 fps=0.4 q=24.3 size=    1024KiB time=00:00:03.06 bitrate=2735.5kbits/s speed=0.0119x elapsed=0:04:17.72    \nframe=   95 fps=0.4 q=26.8 size=    1024KiB time=00:00:03.10 bitrate=2706.1kbits/s speed=0.012x elapsed=0:04:18.22    \nframe=   95 fps=0.4 q=26.8 size=    1024KiB time=00:00:03.10 bitrate=2706.1kbits/s speed=0.012x elapsed=0:04:18.74    \nframe=   95 fps=0.4 q=26.8 size=    1024KiB time=00:00:03.10 bitrate=2706.1kbits/s speed=0.012x elapsed=0:04:19.26    \nframe=   95 fps=0.4 q=26.8 size=    1024KiB time=00:00:03.10 bitrate=2706.1kbits/s speed=0.0119x elapsed=0:04:19.79    \nframe=   96 fps=0.4 q=28.5 size=    1024KiB time=00:00:03.13 bitrate=2677.3kbits/s speed=0.012x elapsed=0:04:20.30    \nframe=   96 fps=0.4 q=28.5 size=    1024KiB time=00:00:03.13 bitrate=2677.3kbits/s speed=0.012x elapsed=0:04:20.82    \nframe=   97 fps=0.4 q=28.8 size=    1024KiB time=00:00:03.16 bitrate=2649.1kbits/s speed=0.0121x elapsed=0:04:21.34    \nframe=   97 fps=0.4 q=28.8 size=    1024KiB time=00:00:03.16 bitrate=2649.1kbits/s speed=0.0121x elapsed=0:04:21.86    \nframe=   98 fps=0.4 q=24.1 size=    1024KiB time=00:00:03.20 bitrate=2621.6kbits/s speed=0.0122x elapsed=0:04:22.36    \nframe=   98 fps=0.4 q=24.1 size=    1024KiB time=00:00:03.20 bitrate=2621.6kbits/s speed=0.0122x elapsed=0:04:22.88    \nframe=   99 fps=0.4 q=26.7 size=    1024KiB time=00:00:03.23 bitrate=2594.5kbits/s speed=0.0123x elapsed=0:04:23.40    \nframe=  100 fps=0.4 q=28.6 size=    1024KiB time=00:00:03.26 bitrate=2568.0kbits/s speed=0.0124x elapsed=0:04:23.91    \nframe=  100 fps=0.4 q=28.6 size=    1024KiB time=00:00:03.26 bitrate=2568.0kbits/s speed=0.0124x elapsed=0:04:24.43    \nframe=  100 fps=0.4 q=28.6 size=    1024KiB time=00:00:03.26 bitrate=2568.0kbits/s speed=0.0123x elapsed=0:04:24.95    \nframe=  101 fps=0.4 q=28.9 size=    1024KiB time=00:00:03.30 bitrate=2542.1kbits/s speed=0.0124x elapsed=0:04:25.45    \nframe=  102 fps=0.4 q=28.6 size=    1024KiB time=00:00:03.33 bitrate=2516.7kbits/s speed=0.0125x elapsed=0:04:25.98    \nframe=  102 fps=0.4 q=28.6 size=    1024KiB time=00:00:03.33 bitrate=2516.7kbits/s speed=0.0125x elapsed=0:04:26.50    \nframe=  102 fps=0.4 q=28.6 size=    1024KiB time=00:00:03.33 bitrate=2516.7kbits/s speed=0.0125x elapsed=0:04:27.00    \nframe=  103 fps=0.4 q=24.3 size=    1280KiB time=00:00:03.36 bitrate=3114.7kbits/s speed=0.0126x elapsed=0:04:27.52    \nframe=  104 fps=0.4 q=26.7 size=    1280KiB time=00:00:03.40 bitrate=3084.2kbits/s speed=0.0127x elapsed=0:04:28.04    \nframe=  104 fps=0.4 q=26.7 size=    1280KiB time=00:00:03.40 bitrate=3084.2kbits/s speed=0.0127x elapsed=0:04:28.55    \nframe=  105 fps=0.4 q=28.4 size=    1280KiB time=00:00:03.43 bitrate=3054.2kbits/s speed=0.0128x elapsed=0:04:29.07    \nframe=  106 fps=0.4 q=28.8 size=    1280KiB time=00:00:03.46 bitrate=3024.8kbits/s speed=0.0129x elapsed=0:04:29.59    \nframe=  106 fps=0.4 q=28.8 size=    1280KiB time=00:00:03.46 bitrate=3024.8kbits/s speed=0.0128x elapsed=0:04:30.11    \nframe=  107 fps=0.4 q=28.6 size=    1280KiB time=00:00:03.50 bitrate=2996.0kbits/s speed=0.0129x elapsed=0:04:30.61    \nframe=  107 fps=0.4 q=28.6 size=    1280KiB time=00:00:03.50 bitrate=2996.0kbits/s speed=0.0129x elapsed=0:04:31.13    \nframe=  107 fps=0.4 q=28.6 size=    1280KiB time=00:00:03.50 bitrate=2996.0kbits/s speed=0.0129x elapsed=0:04:31.65    \nframe=  107 fps=0.4 q=28.6 size=    1280KiB time=00:00:03.50 bitrate=2996.0kbits/s speed=0.0129x elapsed=0:04:32.17    \nframe=  107 fps=0.4 q=28.6 size=    1280KiB time=00:00:03.50 bitrate=2996.0kbits/s speed=0.0128x elapsed=0:04:32.68    \nframe=  108 fps=0.4 q=24.8 size=    1280KiB time=00:00:03.53 bitrate=2967.8kbits/s speed=0.0129x elapsed=0:04:33.20    \nframe=  108 fps=0.4 q=24.8 size=    1280KiB time=00:00:03.53 bitrate=2967.8kbits/s speed=0.0129x elapsed=0:04:33.73    \nframe=  108 fps=0.4 q=24.8 size=    1280KiB time=00:00:03.53 bitrate=2967.8kbits/s speed=0.0129x elapsed=0:04:34.24    \nframe=  108 fps=0.4 q=24.8 size=    1280KiB time=00:00:03.53 bitrate=2967.8kbits/s speed=0.0129x elapsed=0:04:34.76    \nframe=  108 fps=0.4 q=24.8 size=    1280KiB time=00:00:03.53 bitrate=2967.8kbits/s speed=0.0128x elapsed=0:04:35.28    \nframe=  109 fps=0.4 q=26.8 size=    1280KiB time=00:00:03.56 bitrate=2940.0kbits/s speed=0.0129x elapsed=0:04:35.80    \nframe=  109 fps=0.4 q=26.8 size=    1280KiB time=00:00:03.56 bitrate=2940.0kbits/s speed=0.0129x elapsed=0:04:36.32    \nframe=  109 fps=0.4 q=26.8 size=    1280KiB time=00:00:03.56 bitrate=2940.0kbits/s speed=0.0129x elapsed=0:04:36.86    \nframe=  109 fps=0.4 q=26.8 size=    1280KiB time=00:00:03.56 bitrate=2940.0kbits/s speed=0.0129x elapsed=0:04:37.39    \nframe=  109 fps=0.4 q=26.8 size=    1280KiB time=00:00:03.56 bitrate=2940.0kbits/s speed=0.0128x elapsed=0:04:37.93    \nframe=  110 fps=0.4 q=28.6 size=    1280KiB time=00:00:03.60 bitrate=2912.8kbits/s speed=0.0129x elapsed=0:04:38.45    \nframe=  110 fps=0.4 q=28.6 size=    1280KiB time=00:00:03.60 bitrate=2912.8kbits/s speed=0.0129x elapsed=0:04:38.96    \nframe=  111 fps=0.4 q=28.9 size=    1280KiB time=00:00:03.63 bitrate=2886.1kbits/s speed=0.013x elapsed=0:04:39.50    \nframe=  111 fps=0.4 q=28.9 size=    1280KiB time=00:00:03.63 bitrate=2886.1kbits/s speed=0.013x elapsed=0:04:40.03    \nframe=  111 fps=0.4 q=28.9 size=    1280KiB time=00:00:03.63 bitrate=2886.1kbits/s speed=0.013x elapsed=0:04:40.54    \nframe=  111 fps=0.4 q=28.9 size=    1280KiB time=00:00:03.63 bitrate=2886.1kbits/s speed=0.0129x elapsed=0:04:41.09    \nframe=  111 fps=0.4 q=28.9 size=    1280KiB time=00:00:03.63 bitrate=2886.1kbits/s speed=0.0129x elapsed=0:04:41.62    \nframe=  111 fps=0.4 q=28.9 size=    1280KiB time=00:00:03.63 bitrate=2886.1kbits/s speed=0.0129x elapsed=0:04:42.15    \nframe=  112 fps=0.4 q=28.9 size=    1280KiB time=00:00:03.66 bitrate=2859.8kbits/s speed=0.013x elapsed=0:04:42.67    \nframe=  112 fps=0.4 q=28.9 size=    1280KiB time=00:00:03.66 bitrate=2859.8kbits/s speed=0.0129x elapsed=0:04:43.18    \nframe=  113 fps=0.4 q=25.4 size=    1280KiB time=00:00:03.70 bitrate=2834.1kbits/s speed=0.013x elapsed=0:04:43.70    \nframe=  113 fps=0.4 q=25.4 size=    1280KiB time=00:00:03.70 bitrate=2834.1kbits/s speed=0.013x elapsed=0:04:44.23    \nframe=  113 fps=0.4 q=25.4 size=    1280KiB time=00:00:03.70 bitrate=2834.1kbits/s speed=0.013x elapsed=0:04:44.74    \nframe=  113 fps=0.4 q=25.4 size=    1280KiB time=00:00:03.70 bitrate=2834.1kbits/s speed=0.013x elapsed=0:04:45.26    \nframe=  113 fps=0.4 q=25.4 size=    1280KiB time=00:00:03.70 bitrate=2834.1kbits/s speed=0.0129x elapsed=0:04:45.79    \nframe=  114 fps=0.4 q=28.2 size=    1280KiB time=00:00:03.73 bitrate=2808.8kbits/s speed=0.013x elapsed=0:04:46.31    \nframe=  114 fps=0.4 q=28.2 size=    1280KiB time=00:00:03.73 bitrate=2808.8kbits/s speed=0.013x elapsed=0:04:46.83    \nframe=  114 fps=0.4 q=28.2 size=    1280KiB time=00:00:03.73 bitrate=2808.8kbits/s speed=0.013x elapsed=0:04:47.37    \nframe=  114 fps=0.4 q=28.2 size=    1280KiB time=00:00:03.73 bitrate=2808.8kbits/s speed=0.013x elapsed=0:04:47.91    \nframe=  115 fps=0.4 q=29.4 size=    1280KiB time=00:00:03.76 bitrate=2783.9kbits/s speed=0.0131x elapsed=0:04:48.43    \nframe=  115 fps=0.4 q=29.4 size=    1280KiB time=00:00:03.76 bitrate=2783.9kbits/s speed=0.013x elapsed=0:04:48.95    \nframe=  115 fps=0.4 q=29.4 size=    1280KiB time=00:00:03.76 bitrate=2783.9kbits/s speed=0.013x elapsed=0:04:49.49    \nframe=  115 fps=0.4 q=29.4 size=    1280KiB time=00:00:03.76 bitrate=2783.9kbits/s speed=0.013x elapsed=0:04:50.02    \nframe=  115 fps=0.4 q=29.4 size=    1280KiB time=00:00:03.76 bitrate=2783.9kbits/s speed=0.013x elapsed=0:04:50.57    \nframe=  116 fps=0.4 q=29.8 size=    1280KiB time=00:00:03.80 bitrate=2759.5kbits/s speed=0.0131x elapsed=0:04:51.12    \nframe=  116 fps=0.4 q=29.8 size=    1280KiB time=00:00:03.80 bitrate=2759.5kbits/s speed=0.013x elapsed=0:04:51.64    \nframe=  116 fps=0.4 q=29.8 size=    1280KiB time=00:00:03.80 bitrate=2759.5kbits/s speed=0.013x elapsed=0:04:52.15    \nframe=  117 fps=0.4 q=25.4 size=    1280KiB time=00:00:03.83 bitrate=2735.5kbits/s speed=0.0131x elapsed=0:04:52.67    \nframe=  117 fps=0.4 q=25.4 size=    1280KiB time=00:00:03.83 bitrate=2735.5kbits/s speed=0.0131x elapsed=0:04:53.20    \nframe=  117 fps=0.4 q=25.4 size=    1280KiB time=00:00:03.83 bitrate=2735.5kbits/s speed=0.0131x elapsed=0:04:53.73    \nframe=  117 fps=0.4 q=25.4 size=    1280KiB time=00:00:03.83 bitrate=2735.5kbits/s speed=0.013x elapsed=0:04:54.25    \nframe=  118 fps=0.4 q=28.1 size=    1280KiB time=00:00:03.86 bitrate=2711.9kbits/s speed=0.0131x elapsed=0:04:54.77    \nframe=  118 fps=0.4 q=28.1 size=    1280KiB time=00:00:03.86 bitrate=2711.9kbits/s speed=0.0131x elapsed=0:04:55.29    \nframe=  118 fps=0.4 q=28.1 size=    1280KiB time=00:00:03.86 bitrate=2711.9kbits/s speed=0.0131x elapsed=0:04:55.81    \nframe=  118 fps=0.4 q=28.1 size=    1280KiB time=00:00:03.86 bitrate=2711.9kbits/s speed=0.013x elapsed=0:04:56.34    \nframe=  118 fps=0.4 q=28.1 size=    1280KiB time=00:00:03.86 bitrate=2711.9kbits/s speed=0.013x elapsed=0:04:56.85    \nframe=  119 fps=0.4 q=29.7 size=    1280KiB time=00:00:03.90 bitrate=2688.7kbits/s speed=0.0131x elapsed=0:04:57.37    \nframe=  119 fps=0.4 q=29.7 size=    1280KiB time=00:00:03.90 bitrate=2688.7kbits/s speed=0.0131x elapsed=0:04:57.89    \nframe=  119 fps=0.4 q=29.7 size=    1280KiB time=00:00:03.90 bitrate=2688.7kbits/s speed=0.0131x elapsed=0:04:58.41    \nframe=  119 fps=0.4 q=29.7 size=    1280KiB time=00:00:03.90 bitrate=2688.7kbits/s speed=0.013x elapsed=0:04:58.94    \nframe=  119 fps=0.4 q=29.7 size=    1280KiB time=00:00:03.90 bitrate=2688.7kbits/s speed=0.013x elapsed=0:04:59.44    \nframe=  120 fps=0.4 q=25.8 size=    1280KiB time=00:00:03.93 bitrate=2666.0kbits/s speed=0.0131x elapsed=0:04:59.97    \nframe=  120 fps=0.4 q=25.8 size=    1280KiB time=00:00:03.93 bitrate=2666.0kbits/s speed=0.0131x elapsed=0:05:00.49    \nframe=  120 fps=0.4 q=25.8 size=    1280KiB time=00:00:03.93 bitrate=2666.0kbits/s speed=0.0131x elapsed=0:05:01.01    \nframe=  120 fps=0.4 q=25.8 size=    1280KiB time=00:00:03.93 bitrate=2666.0kbits/s speed=0.013x elapsed=0:05:01.52    \nframe=  120 fps=0.4 q=25.8 size=    1280KiB time=00:00:03.93 bitrate=2666.0kbits/s speed=0.013x elapsed=0:05:02.04    \nframe=  121 fps=0.4 q=28.4 size=    1280KiB time=00:00:03.96 bitrate=2643.6kbits/s speed=0.0131x elapsed=0:05:02.55    \nframe=  121 fps=0.4 q=28.4 size=    1280KiB time=00:00:03.96 bitrate=2643.6kbits/s speed=0.0131x elapsed=0:05:03.08    \nframe=  121 fps=0.4 q=28.4 size=    1280KiB time=00:00:03.96 bitrate=2643.6kbits/s speed=0.0131x elapsed=0:05:03.58    \nframe=  122 fps=0.4 q=30.1 size=    1536KiB time=00:00:04.00 bitrate=3145.8kbits/s speed=0.0132x elapsed=0:05:04.10    \nframe=  122 fps=0.4 q=30.1 size=    1536KiB time=00:00:04.00 bitrate=3145.8kbits/s speed=0.0131x elapsed=0:05:04.63    \nframe=  122 fps=0.4 q=30.1 size=    1536KiB time=00:00:04.00 bitrate=3145.8kbits/s speed=0.0131x elapsed=0:05:05.15    \nframe=  122 fps=0.4 q=30.1 size=    1536KiB time=00:00:04.00 bitrate=3145.8kbits/s speed=0.0131x elapsed=0:05:05.67    \nframe=  123 fps=0.4 q=30.2 size=    1536KiB time=00:00:04.03 bitrate=3119.8kbits/s speed=0.0132x elapsed=0:05:06.19    \nframe=  123 fps=0.4 q=30.2 size=    1536KiB time=00:00:04.03 bitrate=3119.8kbits/s speed=0.0132x elapsed=0:05:06.71    \nframe=  124 fps=0.4 q=25.9 size=    1536KiB time=00:00:04.06 bitrate=3094.2kbits/s speed=0.0132x elapsed=0:05:07.24    \nframe=  124 fps=0.4 q=25.9 size=    1536KiB time=00:00:04.06 bitrate=3094.2kbits/s speed=0.0132x elapsed=0:05:07.79    \nframe=  124 fps=0.4 q=25.9 size=    1536KiB time=00:00:04.06 bitrate=3094.2kbits/s speed=0.0132x elapsed=0:05:08.41    \nframe=  124 fps=0.4 q=25.9 size=    1536KiB time=00:00:04.06 bitrate=3094.2kbits/s speed=0.0132x elapsed=0:05:08.94    \nframe=  124 fps=0.4 q=25.9 size=    1536KiB time=00:00:04.06 bitrate=3094.2kbits/s speed=0.0131x elapsed=0:05:09.51    \nframe=  124 fps=0.4 q=25.9 size=    1536KiB time=00:00:04.06 bitrate=3094.2kbits/s speed=0.0131x elapsed=0:05:10.03    \nframe=  125 fps=0.4 q=28.6 size=    1536KiB time=00:00:04.10 bitrate=3069.1kbits/s speed=0.0132x elapsed=0:05:10.56    \nframe=  125 fps=0.4 q=28.6 size=    1536KiB time=00:00:04.10 bitrate=3069.1kbits/s speed=0.0132x elapsed=0:05:11.09    \nframe=  125 fps=0.4 q=28.6 size=    1536KiB time=00:00:04.10 bitrate=3069.1kbits/s speed=0.0132x elapsed=0:05:11.62    \nframe=  126 fps=0.4 q=30.2 size=    1536KiB time=00:00:04.13 bitrate=3044.3kbits/s speed=0.0132x elapsed=0:05:12.15    \nframe=  126 fps=0.4 q=30.2 size=    1536KiB time=00:00:04.13 bitrate=3044.3kbits/s speed=0.0132x elapsed=0:05:12.67    \nframe=  127 fps=0.4 q=30.4 size=    1536KiB time=00:00:04.16 bitrate=3020.0kbits/s speed=0.0133x elapsed=0:05:13.18    \nframe=  127 fps=0.4 q=30.4 size=    1536KiB time=00:00:04.16 bitrate=3020.0kbits/s speed=0.0133x elapsed=0:05:13.71    \nframe=  128 fps=0.4 q=25.9 size=    1536KiB time=00:00:04.20 bitrate=2996.0kbits/s speed=0.0134x elapsed=0:05:14.24    \nframe=  129 fps=0.4 q=28.4 size=    1536KiB time=00:00:04.23 bitrate=2972.4kbits/s speed=0.0134x elapsed=0:05:14.76    \nframe=  129 fps=0.4 q=28.4 size=    1536KiB time=00:00:04.23 bitrate=2972.4kbits/s speed=0.0134x elapsed=0:05:15.28    \nframe=  130 fps=0.4 q=30.1 size=    1536KiB time=00:00:04.26 bitrate=2949.2kbits/s speed=0.0135x elapsed=0:05:15.78    \nframe=  131 fps=0.4 q=30.8 size=    1536KiB time=00:00:04.30 bitrate=2926.3kbits/s speed=0.0136x elapsed=0:05:16.31    \nframe=  131 fps=0.4 q=30.8 size=    1536KiB time=00:00:04.30 bitrate=2926.3kbits/s speed=0.0136x elapsed=0:05:16.82    \nframe=  131 fps=0.4 q=30.8 size=    1536KiB time=00:00:04.30 bitrate=2926.3kbits/s speed=0.0135x elapsed=0:05:17.34    \nframe=  132 fps=0.4 q=25.8 size=    1536KiB time=00:00:04.33 bitrate=2903.8kbits/s speed=0.0136x elapsed=0:05:17.92    \nframe=  132 fps=0.4 q=25.8 size=    1536KiB time=00:00:04.33 bitrate=2903.8kbits/s speed=0.0136x elapsed=0:05:18.47    \nframe=  132 fps=0.4 q=25.8 size=    1536KiB time=00:00:04.33 bitrate=2903.8kbits/s speed=0.0136x elapsed=0:05:18.99    \nframe=  132 fps=0.4 q=25.8 size=    1536KiB time=00:00:04.33 bitrate=2903.8kbits/s speed=0.0136x elapsed=0:05:19.51    \nframe=  132 fps=0.4 q=25.8 size=    1536KiB time=00:00:04.33 bitrate=2903.8kbits/s speed=0.0135x elapsed=0:05:20.03    \nframe=  132 fps=0.4 q=25.8 size=    1536KiB time=00:00:04.33 bitrate=2903.8kbits/s speed=0.0135x elapsed=0:05:20.56    \nframe=  133 fps=0.4 q=28.8 size=    1536KiB time=00:00:04.36 bitrate=2881.7kbits/s speed=0.0136x elapsed=0:05:21.09    \nframe=  133 fps=0.4 q=28.8 size=    1536KiB time=00:00:04.36 bitrate=2881.7kbits/s speed=0.0136x elapsed=0:05:21.63    \nframe=  133 fps=0.4 q=28.8 size=    1536KiB time=00:00:04.36 bitrate=2881.7kbits/s speed=0.0136x elapsed=0:05:22.15    \nframe=  134 fps=0.4 q=30.3 size=    1536KiB time=00:00:04.40 bitrate=2859.8kbits/s speed=0.0136x elapsed=0:05:22.69    \nframe=  134 fps=0.4 q=30.3 size=    1536KiB time=00:00:04.40 bitrate=2859.8kbits/s speed=0.0136x elapsed=0:05:23.22    \nframe=  135 fps=0.4 q=31.1 size=    1536KiB time=00:00:04.43 bitrate=2838.3kbits/s speed=0.0137x elapsed=0:05:23.74    \nframe=  135 fps=0.4 q=31.1 size=    1536KiB time=00:00:04.43 bitrate=2838.3kbits/s speed=0.0137x elapsed=0:05:24.26    \nframe=  135 fps=0.4 q=31.1 size=    1536KiB time=00:00:04.43 bitrate=2838.3kbits/s speed=0.0136x elapsed=0:05:24.80    \nframe=  135 fps=0.4 q=31.1 size=    1536KiB time=00:00:04.43 bitrate=2838.3kbits/s speed=0.0136x elapsed=0:05:25.32    \nframe=  135 fps=0.4 q=31.1 size=    1536KiB time=00:00:04.43 bitrate=2838.3kbits/s speed=0.0136x elapsed=0:05:25.84    \nframe=  136 fps=0.4 q=31.1 size=    1536KiB time=00:00:04.46 bitrate=2817.1kbits/s speed=0.0137x elapsed=0:05:26.36    \nframe=  136 fps=0.4 q=31.1 size=    1536KiB time=00:00:04.46 bitrate=2817.1kbits/s speed=0.0137x elapsed=0:05:26.90    \nframe=  136 fps=0.4 q=31.1 size=    1536KiB time=00:00:04.46 bitrate=2817.1kbits/s speed=0.0136x elapsed=0:05:27.41    \nframe=  136 fps=0.4 q=31.1 size=    1536KiB time=00:00:04.46 bitrate=2817.1kbits/s speed=0.0136x elapsed=0:05:27.94    \nframe=  137 fps=0.4 q=26.0 size=    1536KiB time=00:00:04.50 bitrate=2796.3kbits/s speed=0.0137x elapsed=0:05:28.47    \nframe=  137 fps=0.4 q=26.0 size=    1536KiB time=00:00:04.50 bitrate=2796.3kbits/s speed=0.0137x elapsed=0:05:29.00    \nframe=  138 fps=0.4 q=29.2 size=    1536KiB time=00:00:04.53 bitrate=2775.7kbits/s speed=0.0138x elapsed=0:05:29.54    \nframe=  138 fps=0.4 q=29.2 size=    1536KiB time=00:00:04.53 bitrate=2775.7kbits/s speed=0.0137x elapsed=0:05:30.05    \nframe=  138 fps=0.4 q=29.2 size=    1536KiB time=00:00:04.53 bitrate=2775.7kbits/s speed=0.0137x elapsed=0:05:30.59    \nframe=  138 fps=0.4 q=29.2 size=    1536KiB time=00:00:04.53 bitrate=2775.7kbits/s speed=0.0137x elapsed=0:05:31.10    \nframe=  138 fps=0.4 q=29.2 size=    1536KiB time=00:00:04.53 bitrate=2775.7kbits/s speed=0.0137x elapsed=0:05:31.63    \nframe=  139 fps=0.4 q=29.9 size=    1536KiB time=00:00:04.56 bitrate=2755.5kbits/s speed=0.0137x elapsed=0:05:32.17    \nframe=  139 fps=0.4 q=29.9 size=    1536KiB time=00:00:04.56 bitrate=2755.5kbits/s speed=0.0137x elapsed=0:05:32.72    \nframe=  139 fps=0.4 q=29.9 size=    1536KiB time=00:00:04.56 bitrate=2755.5kbits/s speed=0.0137x elapsed=0:05:33.24    \nframe=  139 fps=0.4 q=29.9 size=    1536KiB time=00:00:04.56 bitrate=2755.5kbits/s speed=0.0137x elapsed=0:05:33.76    \nframe=  139 fps=0.4 q=29.9 size=    1536KiB time=00:00:04.56 bitrate=2755.5kbits/s speed=0.0137x elapsed=0:05:34.28    \nframe=  140 fps=0.4 q=30.9 size=    1536KiB time=00:00:04.60 bitrate=2735.5kbits/s speed=0.0137x elapsed=0:05:34.80    \nframe=  141 fps=0.4 q=30.7 size=    1536KiB time=00:00:04.63 bitrate=2715.8kbits/s speed=0.0138x elapsed=0:05:35.33    \nframe=  141 fps=0.4 q=30.7 size=    1536KiB time=00:00:04.63 bitrate=2715.8kbits/s speed=0.0138x elapsed=0:05:35.84    \nframe=  141 fps=0.4 q=30.7 size=    1536KiB time=00:00:04.63 bitrate=2715.8kbits/s speed=0.0138x elapsed=0:05:36.37    \nframe=  141 fps=0.4 q=30.7 size=    1536KiB time=00:00:04.63 bitrate=2715.8kbits/s speed=0.0138x elapsed=0:05:36.89    \nframe=  141 fps=0.4 q=30.7 size=    1536KiB time=00:00:04.63 bitrate=2715.8kbits/s speed=0.0137x elapsed=0:05:37.43    \nframe=  141 fps=0.4 q=30.7 size=    1536KiB time=00:00:04.63 bitrate=2715.8kbits/s speed=0.0137x elapsed=0:05:37.95    \nframe=  142 fps=0.4 q=25.5 size=    1536KiB time=00:00:04.66 bitrate=2696.4kbits/s speed=0.0138x elapsed=0:05:38.46    \nframe=  142 fps=0.4 q=25.5 size=    1536KiB time=00:00:04.66 bitrate=2696.4kbits/s speed=0.0138x elapsed=0:05:38.97    \nframe=  143 fps=0.4 q=29.5 size=    1792KiB time=00:00:04.70 bitrate=3123.5kbits/s speed=0.0138x elapsed=0:05:39.49    \nframe=  143 fps=0.4 q=29.5 size=    1792KiB time=00:00:04.70 bitrate=3123.5kbits/s speed=0.0138x elapsed=0:05:40.01    \nframe=  143 fps=0.4 q=29.5 size=    1792KiB time=00:00:04.70 bitrate=3123.5kbits/s speed=0.0138x elapsed=0:05:40.52    \nframe=  143 fps=0.4 q=29.5 size=    1792KiB time=00:00:04.70 bitrate=3123.5kbits/s speed=0.0138x elapsed=0:05:41.03    \nframe=  143 fps=0.4 q=29.5 size=    1792KiB time=00:00:04.70 bitrate=3123.5kbits/s speed=0.0138x elapsed=0:05:41.58    \nframe=  144 fps=0.4 q=30.9 size=    1792KiB time=00:00:04.73 bitrate=3101.5kbits/s speed=0.0138x elapsed=0:05:42.13    \nframe=  144 fps=0.4 q=30.9 size=    1792KiB time=00:00:04.73 bitrate=3101.5kbits/s speed=0.0138x elapsed=0:05:42.64    \nframe=  144 fps=0.4 q=30.9 size=    1792KiB time=00:00:04.73 bitrate=3101.5kbits/s speed=0.0138x elapsed=0:05:43.16    \nframe=  144 fps=0.4 q=30.9 size=    1792KiB time=00:00:04.73 bitrate=3101.5kbits/s speed=0.0138x elapsed=0:05:43.69    \nframe=  144 fps=0.4 q=30.9 size=    1792KiB time=00:00:04.73 bitrate=3101.5kbits/s speed=0.0138x elapsed=0:05:44.23    \nframe=  145 fps=0.4 q=30.7 size=    1792KiB time=00:00:04.76 bitrate=3079.8kbits/s speed=0.0138x elapsed=0:05:44.76    \nframe=  145 fps=0.4 q=30.7 size=    1792KiB time=00:00:04.76 bitrate=3079.8kbits/s speed=0.0138x elapsed=0:05:45.29    \nframe=  145 fps=0.4 q=30.7 size=    1792KiB time=00:00:04.76 bitrate=3079.8kbits/s speed=0.0138x elapsed=0:05:45.80    \nframe=  145 fps=0.4 q=30.7 size=    1792KiB time=00:00:04.76 bitrate=3079.8kbits/s speed=0.0138x elapsed=0:05:46.32    \nframe=  145 fps=0.4 q=30.7 size=    1792KiB time=00:00:04.76 bitrate=3079.8kbits/s speed=0.0137x elapsed=0:05:46.84    \nframe=  145 fps=0.4 q=30.7 size=    1792KiB time=00:00:04.76 bitrate=3079.8kbits/s speed=0.0137x elapsed=0:05:47.38    \nframe=  145 fps=0.4 q=30.7 size=    1792KiB time=00:00:04.76 bitrate=3079.8kbits/s speed=0.0137x elapsed=0:05:47.90    \nframe=  146 fps=0.4 q=25.8 size=    1792KiB time=00:00:04.80 bitrate=3058.4kbits/s speed=0.0138x elapsed=0:05:48.42    \nframe=  146 fps=0.4 q=25.8 size=    1792KiB time=00:00:04.80 bitrate=3058.4kbits/s speed=0.0138x elapsed=0:05:48.96    \nframe=  146 fps=0.4 q=25.8 size=    1792KiB time=00:00:04.80 bitrate=3058.4kbits/s speed=0.0137x elapsed=0:05:49.48    \nframe=  146 fps=0.4 q=25.8 size=    1792KiB time=00:00:04.80 bitrate=3058.4kbits/s speed=0.0137x elapsed=0:05:49.99    \nframe=  147 fps=0.4 q=28.7 size=    1792KiB time=00:00:04.83 bitrate=3037.3kbits/s speed=0.0138x elapsed=0:05:50.51    \nframe=  147 fps=0.4 q=28.7 size=    1792KiB time=00:00:04.83 bitrate=3037.3kbits/s speed=0.0138x elapsed=0:05:51.03    \nframe=  147 fps=0.4 q=28.7 size=    1792KiB time=00:00:04.83 bitrate=3037.3kbits/s speed=0.0137x elapsed=0:05:51.53    \nframe=  147 fps=0.4 q=28.7 size=    1792KiB time=00:00:04.83 bitrate=3037.3kbits/s speed=0.0137x elapsed=0:05:52.05    \nframe=  147 fps=0.4 q=28.7 size=    1792KiB time=00:00:04.83 bitrate=3037.3kbits/s speed=0.0137x elapsed=0:05:52.59    \nframe=  149 fps=0.4 q=30.2 size=    1792KiB time=00:00:04.90 bitrate=2996.0kbits/s speed=0.0139x elapsed=0:05:53.11    \n[mp4 @ 00000296f6cac580] Starting second pass: moving the moov atom to the beginning of the file\n[out#0/mp4 @ 00000296f6caad00] video:1902KiB audio:0KiB subtitle:0KiB other streams:0KiB global headers:2KiB muxing overhead: 0.264994%\nframe=  150 fps=0.4 q=30.5 Lsize=    1907KiB time=00:00:04.93 bitrate=3166.0kbits/s speed=0.014x elapsed=0:05:53.50    \nx265 [info]: frame I:      1, Avg QP:27.71  kb/s: 2682.24 \nx265 [info]: frame P:     32, Avg QP:24.08  kb/s: 6130.93 \nx265 [info]: frame B:    117, Avg QP:27.27  kb/s: 2293.29 \nx265 [info]: Weighted P-Frames: Y:9.4% UV:3.1%\n\nencoded 150 frames in 353.06s (0.42 fps), 3114.58 kb/s, Avg QP:26.60\n",
  "seconds": 353.87862062454224,
  "probe_out": {}
}